G04 #@! TF.GenerationSoftware,KiCad,Pcbnew,(6.0.1)*
G04 #@! TF.CreationDate,2022-03-21T13:55:18+01:00*
G04 #@! TF.ProjectId,ERC_2022_GripperBoard,4552435f-3230-4323-925f-477269707065,rev?*
G04 #@! TF.SameCoordinates,Original*
G04 #@! TF.FileFunction,Soldermask,Top*
G04 #@! TF.FilePolarity,Negative*
%FSLAX46Y46*%
G04 Gerber Fmt 4.6, Leading zero omitted, Abs format (unit mm)*
G04 Created by KiCad (PCBNEW (6.0.1)) date 2022-03-21 13:55:18*
%MOMM*%
%LPD*%
G01*
G04 APERTURE LIST*
G04 Aperture macros list*
%AMRoundRect*
0 Rectangle with rounded corners*
0 $1 Rounding radius*
0 $2 $3 $4 $5 $6 $7 $8 $9 X,Y pos of 4 corners*
0 Add a 4 corners polygon primitive as box body*
4,1,4,$2,$3,$4,$5,$6,$7,$8,$9,$2,$3,0*
0 Add four circle primitives for the rounded corners*
1,1,$1+$1,$2,$3*
1,1,$1+$1,$4,$5*
1,1,$1+$1,$6,$7*
1,1,$1+$1,$8,$9*
0 Add four rect primitives between the rounded corners*
20,1,$1+$1,$2,$3,$4,$5,0*
20,1,$1+$1,$4,$5,$6,$7,0*
20,1,$1+$1,$6,$7,$8,$9,0*
20,1,$1+$1,$8,$9,$2,$3,0*%
G04 Aperture macros list end*
G04 #@! TA.AperFunction,Profile*
%ADD10C,0.100000*%
G04 #@! TD*
G04 #@! TA.AperFunction,Profile*
%ADD11C,0.150000*%
G04 #@! TD*
%ADD12C,1.700000*%
%ADD13C,5.600000*%
%ADD14RoundRect,0.250000X0.375000X0.625000X-0.375000X0.625000X-0.375000X-0.625000X0.375000X-0.625000X0*%
%ADD15O,1.524000X1.524000*%
%ADD16R,1.524000X1.524000*%
%ADD17C,1.524000*%
%ADD18RoundRect,0.250000X0.550000X-1.500000X0.550000X1.500000X-0.550000X1.500000X-0.550000X-1.500000X0*%
%ADD19RoundRect,0.250000X-0.550000X1.500000X-0.550000X-1.500000X0.550000X-1.500000X0.550000X1.500000X0*%
%ADD20R,1.700000X1.700000*%
%ADD21O,1.700000X1.700000*%
G04 APERTURE END LIST*
D10*
X157000000Y-67000000D02*
X157000000Y-101500000D01*
D11*
X141305000Y-99355000D02*
G75*
G03*
X141305000Y-99355000I-1100000J0D01*
G01*
D10*
X127250000Y-120500000D02*
G75*
G03*
X128750000Y-122000000I1500001J1D01*
G01*
X144425000Y-70996573D02*
X131250000Y-71000000D01*
X155500000Y-103000000D02*
G75*
G03*
X157000000Y-101500000I-1J1500001D01*
G01*
X150000000Y-120500000D02*
X150000000Y-104500000D01*
X151500000Y-103000000D02*
X155500000Y-103000000D01*
D11*
X154705000Y-83455000D02*
G75*
G03*
X154705000Y-83455000I-1100000J0D01*
G01*
D10*
X157000000Y-67000000D02*
G75*
G03*
X155000000Y-65000000I-1999999J1D01*
G01*
X128750000Y-122000000D02*
X148500000Y-122000000D01*
X131250000Y-71000000D02*
G75*
G03*
X127250000Y-75000000I0J-4000000D01*
G01*
X127250000Y-75000000D02*
X127250000Y-120500000D01*
X151500000Y-103000000D02*
G75*
G03*
X150000000Y-104500000I1J-1500001D01*
G01*
X150500000Y-64996571D02*
G75*
G03*
X148496574Y-66996573I1J-2003430D01*
G01*
X144425000Y-70996573D02*
G75*
G03*
X148496573Y-66996573I70945J3999999D01*
G01*
X148500000Y-122000000D02*
G75*
G03*
X150000000Y-120500000I-1J1500001D01*
G01*
X150500000Y-64996571D02*
X155000000Y-65000000D01*
D12*
X136250000Y-118290000D03*
X136250000Y-115750000D03*
X136250000Y-113210000D03*
D13*
X152750000Y-69250000D03*
D14*
X141400000Y-73500000D03*
X138600000Y-73500000D03*
D15*
X154535000Y-100285000D03*
D16*
X149455000Y-100285000D03*
X151995000Y-100285000D03*
D17*
X146915000Y-100285000D03*
X144375000Y-100285000D03*
X144375000Y-97745000D03*
D14*
X141400000Y-79000000D03*
X138600000Y-79000000D03*
D18*
X131250000Y-108450000D03*
X131250000Y-103050000D03*
D13*
X130500000Y-97250000D03*
D19*
X131250000Y-113800000D03*
X131250000Y-119200000D03*
D14*
X141400000Y-76250000D03*
X138600000Y-76250000D03*
D12*
X136250000Y-107520000D03*
X136250000Y-104980000D03*
D20*
X135500000Y-97225000D03*
D21*
X135500000Y-99765000D03*
M02*
