%FSLAX45Y45*%
G04 Gerber Fmt 4.5, Leading zero omitted, Abs format (unit mm)*
G04 Created by KiCad (PCBNEW (6.0.1)) date 2022-03-21 13:57:09*
%MOMM*%
%LPD*%
G01*
G04 APERTURE LIST*
%TA.AperFunction,Profile*%
%ADD10C,0.100000*%
%TD*%
%TA.AperFunction,Profile*%
%ADD11C,0.150000*%
%TD*%
%ADD12C,0.200000*%
%ADD13C,0.040000*%
%ADD14C,0.070000*%
%ADD15C,0.076200*%
%ADD16C,0.100000*%
%ADD17C,0.110000*%
%ADD18C,0.320000*%
G04 APERTURE END LIST*
D10*
X15700000Y-6700000D02*
X15700000Y-10150000D01*
D11*
X14130500Y-9935500D02*
G75*
G03*
X14130500Y-9935500I-110000J0D01*
G01*
D10*
X12725000Y-12050000D02*
G75*
G03*
X12875000Y-12200000I150000J0D01*
G01*
X14442500Y-7099657D02*
X13125000Y-7100000D01*
X15550000Y-10300000D02*
G75*
G03*
X15700000Y-10150000I0J150000D01*
G01*
X15000000Y-12050000D02*
X15000000Y-10450000D01*
X15150000Y-10300000D02*
X15550000Y-10300000D01*
D11*
X15470500Y-8345500D02*
G75*
G03*
X15470500Y-8345500I-110000J0D01*
G01*
D10*
X15700000Y-6700000D02*
G75*
G03*
X15500000Y-6500000I-200000J0D01*
G01*
X12875000Y-12200000D02*
X14850000Y-12200000D01*
X13125000Y-7100000D02*
G75*
G03*
X12725000Y-7500000I0J-400000D01*
G01*
X12725000Y-7500000D02*
X12725000Y-12050000D01*
X15150000Y-10300000D02*
G75*
G03*
X15000000Y-10450000I0J-150000D01*
G01*
X15050000Y-6499657D02*
G75*
G03*
X14849657Y-6699657I0J-200343D01*
G01*
X14442500Y-7099657D02*
G75*
G03*
X14849657Y-6699657I7095J400000D01*
G01*
X14850000Y-12200000D02*
G75*
G03*
X15000000Y-12050000I0J150000D01*
G01*
X15050000Y-6499657D02*
X15500000Y-6500000D01*
D12*
D13*
X12870000Y-8215000D02*
X12910000Y-8255000D01*
X12910000Y-8215000D02*
X12870000Y-8255000D01*
X12874980Y-8629980D02*
X12914980Y-8669980D01*
X12914980Y-8629980D02*
X12874980Y-8669980D01*
X12980000Y-9080000D02*
X13020000Y-9120000D01*
X13020000Y-9080000D02*
X12980000Y-9120000D01*
X14930000Y-9480000D02*
X14970000Y-9520000D01*
X14970000Y-9480000D02*
X14930000Y-9520000D01*
X15090000Y-7370000D02*
X15130000Y-7410000D01*
X15130000Y-7370000D02*
X15090000Y-7410000D01*
X15120000Y-7675000D02*
X15160000Y-7715000D01*
X15160000Y-7675000D02*
X15120000Y-7715000D01*
D14*
X14515000Y-11380000D02*
G75*
G03*
X14515000Y-11380000I-35000J0D01*
G01*
D15*
X14437500Y-9736400D02*
X14437500Y-9812600D01*
X14399400Y-9774500D02*
X14475600Y-9774500D01*
X14437500Y-9990400D02*
X14437500Y-10066600D01*
X14399400Y-10028500D02*
X14475600Y-10028500D01*
X14691500Y-9990400D02*
X14691500Y-10066600D01*
X14653400Y-10028500D02*
X14729600Y-10028500D01*
X14945500Y-9990400D02*
X14945500Y-10066600D01*
X14907400Y-10028500D02*
X14983600Y-10028500D01*
X15199500Y-9990400D02*
X15199500Y-10066600D01*
X15161400Y-10028500D02*
X15237600Y-10028500D01*
X15453500Y-9990400D02*
X15453500Y-10066600D01*
X15415400Y-10028500D02*
X15491600Y-10028500D01*
D16*
X13585356Y-9757856D02*
X13585356Y-9687144D01*
X13514644Y-9687144D01*
X13514644Y-9757856D01*
X13585356Y-9757856D01*
X13585356Y-10011856D02*
X13585356Y-9941144D01*
X13514644Y-9941144D01*
X13514644Y-10011856D01*
X13585356Y-10011856D01*
D17*
X13625000Y-10553000D02*
X13680000Y-10498000D01*
X13625000Y-10443000D01*
X13570000Y-10498000D01*
X13625000Y-10553000D01*
X13625000Y-10807000D02*
X13680000Y-10752000D01*
X13625000Y-10697000D01*
X13570000Y-10752000D01*
X13625000Y-10807000D01*
X13625000Y-11376000D02*
X13680000Y-11321000D01*
X13625000Y-11266000D01*
X13570000Y-11321000D01*
X13625000Y-11376000D01*
X13625000Y-11630000D02*
X13680000Y-11575000D01*
X13625000Y-11520000D01*
X13570000Y-11575000D01*
X13625000Y-11630000D01*
X13625000Y-11884000D02*
X13680000Y-11829000D01*
X13625000Y-11774000D01*
X13570000Y-11829000D01*
X13625000Y-11884000D01*
D18*
X12890000Y-9565000D02*
X13210000Y-9885000D01*
X13210000Y-9565000D02*
X12890000Y-9885000D01*
X13210000Y-9725000D02*
G75*
G03*
X13210000Y-9725000I-160000J0D01*
G01*
X15115000Y-6765000D02*
X15435000Y-7085000D01*
X15435000Y-6765000D02*
X15115000Y-7085000D01*
X15435000Y-6925000D02*
G75*
G03*
X15435000Y-6925000I-160000J0D01*
G01*
D12*
X12977619Y-12515476D02*
X12977619Y-12315476D01*
X13025238Y-12315476D01*
X13053809Y-12325000D01*
X13072857Y-12344048D01*
X13082381Y-12363095D01*
X13091905Y-12401190D01*
X13091905Y-12429762D01*
X13082381Y-12467857D01*
X13072857Y-12486905D01*
X13053809Y-12505952D01*
X13025238Y-12515476D01*
X12977619Y-12515476D01*
X13177619Y-12515476D02*
X13177619Y-12382143D01*
X13177619Y-12420238D02*
X13187143Y-12401190D01*
X13196667Y-12391667D01*
X13215714Y-12382143D01*
X13234762Y-12382143D01*
X13301428Y-12515476D02*
X13301428Y-12382143D01*
X13301428Y-12315476D02*
X13291905Y-12325000D01*
X13301428Y-12334524D01*
X13310952Y-12325000D01*
X13301428Y-12315476D01*
X13301428Y-12334524D01*
X13425238Y-12515476D02*
X13406190Y-12505952D01*
X13396667Y-12486905D01*
X13396667Y-12315476D01*
X13530000Y-12515476D02*
X13510952Y-12505952D01*
X13501428Y-12486905D01*
X13501428Y-12315476D01*
X13758571Y-12515476D02*
X13758571Y-12315476D01*
X13825238Y-12458333D01*
X13891905Y-12315476D01*
X13891905Y-12515476D01*
X14072857Y-12515476D02*
X14072857Y-12410714D01*
X14063333Y-12391667D01*
X14044286Y-12382143D01*
X14006190Y-12382143D01*
X13987143Y-12391667D01*
X14072857Y-12505952D02*
X14053809Y-12515476D01*
X14006190Y-12515476D01*
X13987143Y-12505952D01*
X13977619Y-12486905D01*
X13977619Y-12467857D01*
X13987143Y-12448809D01*
X14006190Y-12439286D01*
X14053809Y-12439286D01*
X14072857Y-12429762D01*
X14168095Y-12382143D02*
X14168095Y-12582143D01*
X14168095Y-12391667D02*
X14187143Y-12382143D01*
X14225238Y-12382143D01*
X14244286Y-12391667D01*
X14253809Y-12401190D01*
X14263333Y-12420238D01*
X14263333Y-12477381D01*
X14253809Y-12496428D01*
X14244286Y-12505952D01*
X14225238Y-12515476D01*
X14187143Y-12515476D01*
X14168095Y-12505952D01*
X14349048Y-12496428D02*
X14358571Y-12505952D01*
X14349048Y-12515476D01*
X14339524Y-12505952D01*
X14349048Y-12496428D01*
X14349048Y-12515476D01*
X14349048Y-12391667D02*
X14358571Y-12401190D01*
X14349048Y-12410714D01*
X14339524Y-12401190D01*
X14349048Y-12391667D01*
X14349048Y-12410714D01*
D13*
X12680000Y-12825000D02*
X12720000Y-12865000D01*
X12720000Y-12825000D02*
X12680000Y-12865000D01*
D12*
X13015714Y-12735476D02*
X13034762Y-12735476D01*
X13053809Y-12745000D01*
X13063333Y-12754524D01*
X13072857Y-12773571D01*
X13082381Y-12811667D01*
X13082381Y-12859286D01*
X13072857Y-12897381D01*
X13063333Y-12916428D01*
X13053809Y-12925952D01*
X13034762Y-12935476D01*
X13015714Y-12935476D01*
X12996667Y-12925952D01*
X12987143Y-12916428D01*
X12977619Y-12897381D01*
X12968095Y-12859286D01*
X12968095Y-12811667D01*
X12977619Y-12773571D01*
X12987143Y-12754524D01*
X12996667Y-12745000D01*
X13015714Y-12735476D01*
X13168095Y-12916428D02*
X13177619Y-12925952D01*
X13168095Y-12935476D01*
X13158571Y-12925952D01*
X13168095Y-12916428D01*
X13168095Y-12935476D01*
X13349048Y-12802143D02*
X13349048Y-12935476D01*
X13301428Y-12725952D02*
X13253809Y-12868809D01*
X13377619Y-12868809D01*
X13491905Y-12735476D02*
X13510952Y-12735476D01*
X13530000Y-12745000D01*
X13539524Y-12754524D01*
X13549048Y-12773571D01*
X13558571Y-12811667D01*
X13558571Y-12859286D01*
X13549048Y-12897381D01*
X13539524Y-12916428D01*
X13530000Y-12925952D01*
X13510952Y-12935476D01*
X13491905Y-12935476D01*
X13472857Y-12925952D01*
X13463333Y-12916428D01*
X13453809Y-12897381D01*
X13444286Y-12859286D01*
X13444286Y-12811667D01*
X13453809Y-12773571D01*
X13463333Y-12754524D01*
X13472857Y-12745000D01*
X13491905Y-12735476D01*
X13682381Y-12735476D02*
X13701428Y-12735476D01*
X13720476Y-12745000D01*
X13730000Y-12754524D01*
X13739524Y-12773571D01*
X13749048Y-12811667D01*
X13749048Y-12859286D01*
X13739524Y-12897381D01*
X13730000Y-12916428D01*
X13720476Y-12925952D01*
X13701428Y-12935476D01*
X13682381Y-12935476D01*
X13663333Y-12925952D01*
X13653809Y-12916428D01*
X13644286Y-12897381D01*
X13634762Y-12859286D01*
X13634762Y-12811667D01*
X13644286Y-12773571D01*
X13653809Y-12754524D01*
X13663333Y-12745000D01*
X13682381Y-12735476D01*
X13834762Y-12935476D02*
X13834762Y-12802143D01*
X13834762Y-12821190D02*
X13844286Y-12811667D01*
X13863333Y-12802143D01*
X13891905Y-12802143D01*
X13910952Y-12811667D01*
X13920476Y-12830714D01*
X13920476Y-12935476D01*
X13920476Y-12830714D02*
X13930000Y-12811667D01*
X13949048Y-12802143D01*
X13977619Y-12802143D01*
X13996667Y-12811667D01*
X14006190Y-12830714D01*
X14006190Y-12935476D01*
X14101428Y-12935476D02*
X14101428Y-12802143D01*
X14101428Y-12821190D02*
X14110952Y-12811667D01*
X14130000Y-12802143D01*
X14158571Y-12802143D01*
X14177619Y-12811667D01*
X14187143Y-12830714D01*
X14187143Y-12935476D01*
X14187143Y-12830714D02*
X14196667Y-12811667D01*
X14215714Y-12802143D01*
X14244286Y-12802143D01*
X14263333Y-12811667D01*
X14272857Y-12830714D01*
X14272857Y-12935476D01*
X14663333Y-12725952D02*
X14491905Y-12983095D01*
X14920476Y-12735476D02*
X14939524Y-12735476D01*
X14958571Y-12745000D01*
X14968095Y-12754524D01*
X14977619Y-12773571D01*
X14987143Y-12811667D01*
X14987143Y-12859286D01*
X14977619Y-12897381D01*
X14968095Y-12916428D01*
X14958571Y-12925952D01*
X14939524Y-12935476D01*
X14920476Y-12935476D01*
X14901428Y-12925952D01*
X14891905Y-12916428D01*
X14882381Y-12897381D01*
X14872857Y-12859286D01*
X14872857Y-12811667D01*
X14882381Y-12773571D01*
X14891905Y-12754524D01*
X14901428Y-12745000D01*
X14920476Y-12735476D01*
X15072857Y-12916428D02*
X15082381Y-12925952D01*
X15072857Y-12935476D01*
X15063333Y-12925952D01*
X15072857Y-12916428D01*
X15072857Y-12935476D01*
X15206190Y-12735476D02*
X15225238Y-12735476D01*
X15244286Y-12745000D01*
X15253809Y-12754524D01*
X15263333Y-12773571D01*
X15272857Y-12811667D01*
X15272857Y-12859286D01*
X15263333Y-12897381D01*
X15253809Y-12916428D01*
X15244286Y-12925952D01*
X15225238Y-12935476D01*
X15206190Y-12935476D01*
X15187143Y-12925952D01*
X15177619Y-12916428D01*
X15168095Y-12897381D01*
X15158571Y-12859286D01*
X15158571Y-12811667D01*
X15168095Y-12773571D01*
X15177619Y-12754524D01*
X15187143Y-12745000D01*
X15206190Y-12735476D01*
X15463333Y-12935476D02*
X15349048Y-12935476D01*
X15406190Y-12935476D02*
X15406190Y-12735476D01*
X15387143Y-12764048D01*
X15368095Y-12783095D01*
X15349048Y-12792619D01*
X15644286Y-12735476D02*
X15549048Y-12735476D01*
X15539524Y-12830714D01*
X15549048Y-12821190D01*
X15568095Y-12811667D01*
X15615714Y-12811667D01*
X15634762Y-12821190D01*
X15644286Y-12830714D01*
X15653809Y-12849762D01*
X15653809Y-12897381D01*
X15644286Y-12916428D01*
X15634762Y-12925952D01*
X15615714Y-12935476D01*
X15568095Y-12935476D01*
X15549048Y-12925952D01*
X15539524Y-12916428D01*
X15720476Y-12735476D02*
X15853809Y-12735476D01*
X15768095Y-12935476D01*
X15920476Y-12735476D02*
X15920476Y-12773571D01*
X15996667Y-12735476D02*
X15996667Y-12773571D01*
X16291905Y-13011667D02*
X16282381Y-13002143D01*
X16263333Y-12973571D01*
X16253809Y-12954524D01*
X16244286Y-12925952D01*
X16234762Y-12878333D01*
X16234762Y-12840238D01*
X16244286Y-12792619D01*
X16253809Y-12764048D01*
X16263333Y-12745000D01*
X16282381Y-12716428D01*
X16291905Y-12706905D01*
X16453809Y-12735476D02*
X16415714Y-12735476D01*
X16396667Y-12745000D01*
X16387143Y-12754524D01*
X16368095Y-12783095D01*
X16358571Y-12821190D01*
X16358571Y-12897381D01*
X16368095Y-12916428D01*
X16377619Y-12925952D01*
X16396667Y-12935476D01*
X16434762Y-12935476D01*
X16453809Y-12925952D01*
X16463333Y-12916428D01*
X16472857Y-12897381D01*
X16472857Y-12849762D01*
X16463333Y-12830714D01*
X16453809Y-12821190D01*
X16434762Y-12811667D01*
X16396667Y-12811667D01*
X16377619Y-12821190D01*
X16368095Y-12830714D01*
X16358571Y-12849762D01*
X16710952Y-12935476D02*
X16710952Y-12735476D01*
X16796667Y-12935476D02*
X16796667Y-12830714D01*
X16787143Y-12811667D01*
X16768095Y-12802143D01*
X16739524Y-12802143D01*
X16720476Y-12811667D01*
X16710952Y-12821190D01*
X16920476Y-12935476D02*
X16901429Y-12925952D01*
X16891905Y-12916428D01*
X16882381Y-12897381D01*
X16882381Y-12840238D01*
X16891905Y-12821190D01*
X16901429Y-12811667D01*
X16920476Y-12802143D01*
X16949048Y-12802143D01*
X16968095Y-12811667D01*
X16977619Y-12821190D01*
X16987143Y-12840238D01*
X16987143Y-12897381D01*
X16977619Y-12916428D01*
X16968095Y-12925952D01*
X16949048Y-12935476D01*
X16920476Y-12935476D01*
X17101429Y-12935476D02*
X17082381Y-12925952D01*
X17072857Y-12906905D01*
X17072857Y-12735476D01*
X17253810Y-12925952D02*
X17234762Y-12935476D01*
X17196667Y-12935476D01*
X17177619Y-12925952D01*
X17168095Y-12906905D01*
X17168095Y-12830714D01*
X17177619Y-12811667D01*
X17196667Y-12802143D01*
X17234762Y-12802143D01*
X17253810Y-12811667D01*
X17263333Y-12830714D01*
X17263333Y-12849762D01*
X17168095Y-12868809D01*
X17339524Y-12925952D02*
X17358571Y-12935476D01*
X17396667Y-12935476D01*
X17415714Y-12925952D01*
X17425238Y-12906905D01*
X17425238Y-12897381D01*
X17415714Y-12878333D01*
X17396667Y-12868809D01*
X17368095Y-12868809D01*
X17349048Y-12859286D01*
X17339524Y-12840238D01*
X17339524Y-12830714D01*
X17349048Y-12811667D01*
X17368095Y-12802143D01*
X17396667Y-12802143D01*
X17415714Y-12811667D01*
X17491905Y-13011667D02*
X17501429Y-13002143D01*
X17520476Y-12973571D01*
X17530000Y-12954524D01*
X17539524Y-12925952D01*
X17549048Y-12878333D01*
X17549048Y-12840238D01*
X17539524Y-12792619D01*
X17530000Y-12764048D01*
X17520476Y-12745000D01*
X17501429Y-12716428D01*
X17491905Y-12706905D01*
D14*
X12720000Y-13109000D02*
G75*
G03*
X12720000Y-13109000I-35000J0D01*
G01*
D12*
X13015714Y-12999476D02*
X13034762Y-12999476D01*
X13053809Y-13009000D01*
X13063333Y-13018524D01*
X13072857Y-13037571D01*
X13082381Y-13075667D01*
X13082381Y-13123286D01*
X13072857Y-13161381D01*
X13063333Y-13180428D01*
X13053809Y-13189952D01*
X13034762Y-13199476D01*
X13015714Y-13199476D01*
X12996667Y-13189952D01*
X12987143Y-13180428D01*
X12977619Y-13161381D01*
X12968095Y-13123286D01*
X12968095Y-13075667D01*
X12977619Y-13037571D01*
X12987143Y-13018524D01*
X12996667Y-13009000D01*
X13015714Y-12999476D01*
X13168095Y-13180428D02*
X13177619Y-13189952D01*
X13168095Y-13199476D01*
X13158571Y-13189952D01*
X13168095Y-13180428D01*
X13168095Y-13199476D01*
X13244286Y-12999476D02*
X13377619Y-12999476D01*
X13291905Y-13199476D01*
X13491905Y-12999476D02*
X13510952Y-12999476D01*
X13530000Y-13009000D01*
X13539524Y-13018524D01*
X13549048Y-13037571D01*
X13558571Y-13075667D01*
X13558571Y-13123286D01*
X13549048Y-13161381D01*
X13539524Y-13180428D01*
X13530000Y-13189952D01*
X13510952Y-13199476D01*
X13491905Y-13199476D01*
X13472857Y-13189952D01*
X13463333Y-13180428D01*
X13453809Y-13161381D01*
X13444286Y-13123286D01*
X13444286Y-13075667D01*
X13453809Y-13037571D01*
X13463333Y-13018524D01*
X13472857Y-13009000D01*
X13491905Y-12999476D01*
X13682381Y-12999476D02*
X13701428Y-12999476D01*
X13720476Y-13009000D01*
X13730000Y-13018524D01*
X13739524Y-13037571D01*
X13749048Y-13075667D01*
X13749048Y-13123286D01*
X13739524Y-13161381D01*
X13730000Y-13180428D01*
X13720476Y-13189952D01*
X13701428Y-13199476D01*
X13682381Y-13199476D01*
X13663333Y-13189952D01*
X13653809Y-13180428D01*
X13644286Y-13161381D01*
X13634762Y-13123286D01*
X13634762Y-13075667D01*
X13644286Y-13037571D01*
X13653809Y-13018524D01*
X13663333Y-13009000D01*
X13682381Y-12999476D01*
X13834762Y-13199476D02*
X13834762Y-13066143D01*
X13834762Y-13085190D02*
X13844286Y-13075667D01*
X13863333Y-13066143D01*
X13891905Y-13066143D01*
X13910952Y-13075667D01*
X13920476Y-13094714D01*
X13920476Y-13199476D01*
X13920476Y-13094714D02*
X13930000Y-13075667D01*
X13949048Y-13066143D01*
X13977619Y-13066143D01*
X13996667Y-13075667D01*
X14006190Y-13094714D01*
X14006190Y-13199476D01*
X14101428Y-13199476D02*
X14101428Y-13066143D01*
X14101428Y-13085190D02*
X14110952Y-13075667D01*
X14130000Y-13066143D01*
X14158571Y-13066143D01*
X14177619Y-13075667D01*
X14187143Y-13094714D01*
X14187143Y-13199476D01*
X14187143Y-13094714D02*
X14196667Y-13075667D01*
X14215714Y-13066143D01*
X14244286Y-13066143D01*
X14263333Y-13075667D01*
X14272857Y-13094714D01*
X14272857Y-13199476D01*
X14663333Y-12989952D02*
X14491905Y-13247095D01*
X14920476Y-12999476D02*
X14939524Y-12999476D01*
X14958571Y-13009000D01*
X14968095Y-13018524D01*
X14977619Y-13037571D01*
X14987143Y-13075667D01*
X14987143Y-13123286D01*
X14977619Y-13161381D01*
X14968095Y-13180428D01*
X14958571Y-13189952D01*
X14939524Y-13199476D01*
X14920476Y-13199476D01*
X14901428Y-13189952D01*
X14891905Y-13180428D01*
X14882381Y-13161381D01*
X14872857Y-13123286D01*
X14872857Y-13075667D01*
X14882381Y-13037571D01*
X14891905Y-13018524D01*
X14901428Y-13009000D01*
X14920476Y-12999476D01*
X15072857Y-13180428D02*
X15082381Y-13189952D01*
X15072857Y-13199476D01*
X15063333Y-13189952D01*
X15072857Y-13180428D01*
X15072857Y-13199476D01*
X15206190Y-12999476D02*
X15225238Y-12999476D01*
X15244286Y-13009000D01*
X15253809Y-13018524D01*
X15263333Y-13037571D01*
X15272857Y-13075667D01*
X15272857Y-13123286D01*
X15263333Y-13161381D01*
X15253809Y-13180428D01*
X15244286Y-13189952D01*
X15225238Y-13199476D01*
X15206190Y-13199476D01*
X15187143Y-13189952D01*
X15177619Y-13180428D01*
X15168095Y-13161381D01*
X15158571Y-13123286D01*
X15158571Y-13075667D01*
X15168095Y-13037571D01*
X15177619Y-13018524D01*
X15187143Y-13009000D01*
X15206190Y-12999476D01*
X15349048Y-13018524D02*
X15358571Y-13009000D01*
X15377619Y-12999476D01*
X15425238Y-12999476D01*
X15444286Y-13009000D01*
X15453809Y-13018524D01*
X15463333Y-13037571D01*
X15463333Y-13056619D01*
X15453809Y-13085190D01*
X15339524Y-13199476D01*
X15463333Y-13199476D01*
X15530000Y-12999476D02*
X15663333Y-12999476D01*
X15577619Y-13199476D01*
X15825238Y-12999476D02*
X15787143Y-12999476D01*
X15768095Y-13009000D01*
X15758571Y-13018524D01*
X15739524Y-13047095D01*
X15730000Y-13085190D01*
X15730000Y-13161381D01*
X15739524Y-13180428D01*
X15749048Y-13189952D01*
X15768095Y-13199476D01*
X15806190Y-13199476D01*
X15825238Y-13189952D01*
X15834762Y-13180428D01*
X15844286Y-13161381D01*
X15844286Y-13113762D01*
X15834762Y-13094714D01*
X15825238Y-13085190D01*
X15806190Y-13075667D01*
X15768095Y-13075667D01*
X15749048Y-13085190D01*
X15739524Y-13094714D01*
X15730000Y-13113762D01*
X15920476Y-12999476D02*
X15920476Y-13037571D01*
X15996667Y-12999476D02*
X15996667Y-13037571D01*
X16291905Y-13275667D02*
X16282381Y-13266143D01*
X16263333Y-13237571D01*
X16253809Y-13218524D01*
X16244286Y-13189952D01*
X16234762Y-13142333D01*
X16234762Y-13104238D01*
X16244286Y-13056619D01*
X16253809Y-13028048D01*
X16263333Y-13009000D01*
X16282381Y-12980428D01*
X16291905Y-12970905D01*
X16472857Y-13199476D02*
X16358571Y-13199476D01*
X16415714Y-13199476D02*
X16415714Y-12999476D01*
X16396667Y-13028048D01*
X16377619Y-13047095D01*
X16358571Y-13056619D01*
X16710952Y-13199476D02*
X16710952Y-12999476D01*
X16796667Y-13199476D02*
X16796667Y-13094714D01*
X16787143Y-13075667D01*
X16768095Y-13066143D01*
X16739524Y-13066143D01*
X16720476Y-13075667D01*
X16710952Y-13085190D01*
X16920476Y-13199476D02*
X16901429Y-13189952D01*
X16891905Y-13180428D01*
X16882381Y-13161381D01*
X16882381Y-13104238D01*
X16891905Y-13085190D01*
X16901429Y-13075667D01*
X16920476Y-13066143D01*
X16949048Y-13066143D01*
X16968095Y-13075667D01*
X16977619Y-13085190D01*
X16987143Y-13104238D01*
X16987143Y-13161381D01*
X16977619Y-13180428D01*
X16968095Y-13189952D01*
X16949048Y-13199476D01*
X16920476Y-13199476D01*
X17101429Y-13199476D02*
X17082381Y-13189952D01*
X17072857Y-13170905D01*
X17072857Y-12999476D01*
X17253810Y-13189952D02*
X17234762Y-13199476D01*
X17196667Y-13199476D01*
X17177619Y-13189952D01*
X17168095Y-13170905D01*
X17168095Y-13094714D01*
X17177619Y-13075667D01*
X17196667Y-13066143D01*
X17234762Y-13066143D01*
X17253810Y-13075667D01*
X17263333Y-13094714D01*
X17263333Y-13113762D01*
X17168095Y-13132809D01*
X17330000Y-13275667D02*
X17339524Y-13266143D01*
X17358571Y-13237571D01*
X17368095Y-13218524D01*
X17377619Y-13189952D01*
X17387143Y-13142333D01*
X17387143Y-13104238D01*
X17377619Y-13056619D01*
X17368095Y-13028048D01*
X17358571Y-13009000D01*
X17339524Y-12980428D01*
X17330000Y-12970905D01*
D15*
X12681900Y-13334900D02*
X12681900Y-13411100D01*
X12643800Y-13373000D02*
X12720000Y-13373000D01*
D12*
X13015714Y-13263476D02*
X13034762Y-13263476D01*
X13053809Y-13273000D01*
X13063333Y-13282524D01*
X13072857Y-13301571D01*
X13082381Y-13339667D01*
X13082381Y-13387286D01*
X13072857Y-13425381D01*
X13063333Y-13444428D01*
X13053809Y-13453952D01*
X13034762Y-13463476D01*
X13015714Y-13463476D01*
X12996667Y-13453952D01*
X12987143Y-13444428D01*
X12977619Y-13425381D01*
X12968095Y-13387286D01*
X12968095Y-13339667D01*
X12977619Y-13301571D01*
X12987143Y-13282524D01*
X12996667Y-13273000D01*
X13015714Y-13263476D01*
X13168095Y-13444428D02*
X13177619Y-13453952D01*
X13168095Y-13463476D01*
X13158571Y-13453952D01*
X13168095Y-13444428D01*
X13168095Y-13463476D01*
X13244286Y-13263476D02*
X13377619Y-13263476D01*
X13291905Y-13463476D01*
X13539524Y-13263476D02*
X13501428Y-13263476D01*
X13482381Y-13273000D01*
X13472857Y-13282524D01*
X13453809Y-13311095D01*
X13444286Y-13349190D01*
X13444286Y-13425381D01*
X13453809Y-13444428D01*
X13463333Y-13453952D01*
X13482381Y-13463476D01*
X13520476Y-13463476D01*
X13539524Y-13453952D01*
X13549048Y-13444428D01*
X13558571Y-13425381D01*
X13558571Y-13377762D01*
X13549048Y-13358714D01*
X13539524Y-13349190D01*
X13520476Y-13339667D01*
X13482381Y-13339667D01*
X13463333Y-13349190D01*
X13453809Y-13358714D01*
X13444286Y-13377762D01*
X13634762Y-13282524D02*
X13644286Y-13273000D01*
X13663333Y-13263476D01*
X13710952Y-13263476D01*
X13730000Y-13273000D01*
X13739524Y-13282524D01*
X13749048Y-13301571D01*
X13749048Y-13320619D01*
X13739524Y-13349190D01*
X13625238Y-13463476D01*
X13749048Y-13463476D01*
X13834762Y-13463476D02*
X13834762Y-13330143D01*
X13834762Y-13349190D02*
X13844286Y-13339667D01*
X13863333Y-13330143D01*
X13891905Y-13330143D01*
X13910952Y-13339667D01*
X13920476Y-13358714D01*
X13920476Y-13463476D01*
X13920476Y-13358714D02*
X13930000Y-13339667D01*
X13949048Y-13330143D01*
X13977619Y-13330143D01*
X13996667Y-13339667D01*
X14006190Y-13358714D01*
X14006190Y-13463476D01*
X14101428Y-13463476D02*
X14101428Y-13330143D01*
X14101428Y-13349190D02*
X14110952Y-13339667D01*
X14130000Y-13330143D01*
X14158571Y-13330143D01*
X14177619Y-13339667D01*
X14187143Y-13358714D01*
X14187143Y-13463476D01*
X14187143Y-13358714D02*
X14196667Y-13339667D01*
X14215714Y-13330143D01*
X14244286Y-13330143D01*
X14263333Y-13339667D01*
X14272857Y-13358714D01*
X14272857Y-13463476D01*
X14663333Y-13253952D02*
X14491905Y-13511095D01*
X14920476Y-13263476D02*
X14939524Y-13263476D01*
X14958571Y-13273000D01*
X14968095Y-13282524D01*
X14977619Y-13301571D01*
X14987143Y-13339667D01*
X14987143Y-13387286D01*
X14977619Y-13425381D01*
X14968095Y-13444428D01*
X14958571Y-13453952D01*
X14939524Y-13463476D01*
X14920476Y-13463476D01*
X14901428Y-13453952D01*
X14891905Y-13444428D01*
X14882381Y-13425381D01*
X14872857Y-13387286D01*
X14872857Y-13339667D01*
X14882381Y-13301571D01*
X14891905Y-13282524D01*
X14901428Y-13273000D01*
X14920476Y-13263476D01*
X15072857Y-13444428D02*
X15082381Y-13453952D01*
X15072857Y-13463476D01*
X15063333Y-13453952D01*
X15072857Y-13444428D01*
X15072857Y-13463476D01*
X15206190Y-13263476D02*
X15225238Y-13263476D01*
X15244286Y-13273000D01*
X15253809Y-13282524D01*
X15263333Y-13301571D01*
X15272857Y-13339667D01*
X15272857Y-13387286D01*
X15263333Y-13425381D01*
X15253809Y-13444428D01*
X15244286Y-13453952D01*
X15225238Y-13463476D01*
X15206190Y-13463476D01*
X15187143Y-13453952D01*
X15177619Y-13444428D01*
X15168095Y-13425381D01*
X15158571Y-13387286D01*
X15158571Y-13339667D01*
X15168095Y-13301571D01*
X15177619Y-13282524D01*
X15187143Y-13273000D01*
X15206190Y-13263476D01*
X15339524Y-13263476D02*
X15463333Y-13263476D01*
X15396667Y-13339667D01*
X15425238Y-13339667D01*
X15444286Y-13349190D01*
X15453809Y-13358714D01*
X15463333Y-13377762D01*
X15463333Y-13425381D01*
X15453809Y-13444428D01*
X15444286Y-13453952D01*
X15425238Y-13463476D01*
X15368095Y-13463476D01*
X15349048Y-13453952D01*
X15339524Y-13444428D01*
X15587143Y-13263476D02*
X15606190Y-13263476D01*
X15625238Y-13273000D01*
X15634762Y-13282524D01*
X15644286Y-13301571D01*
X15653809Y-13339667D01*
X15653809Y-13387286D01*
X15644286Y-13425381D01*
X15634762Y-13444428D01*
X15625238Y-13453952D01*
X15606190Y-13463476D01*
X15587143Y-13463476D01*
X15568095Y-13453952D01*
X15558571Y-13444428D01*
X15549048Y-13425381D01*
X15539524Y-13387286D01*
X15539524Y-13339667D01*
X15549048Y-13301571D01*
X15558571Y-13282524D01*
X15568095Y-13273000D01*
X15587143Y-13263476D01*
X15777619Y-13263476D02*
X15796667Y-13263476D01*
X15815714Y-13273000D01*
X15825238Y-13282524D01*
X15834762Y-13301571D01*
X15844286Y-13339667D01*
X15844286Y-13387286D01*
X15834762Y-13425381D01*
X15825238Y-13444428D01*
X15815714Y-13453952D01*
X15796667Y-13463476D01*
X15777619Y-13463476D01*
X15758571Y-13453952D01*
X15749048Y-13444428D01*
X15739524Y-13425381D01*
X15730000Y-13387286D01*
X15730000Y-13339667D01*
X15739524Y-13301571D01*
X15749048Y-13282524D01*
X15758571Y-13273000D01*
X15777619Y-13263476D01*
X15920476Y-13263476D02*
X15920476Y-13301571D01*
X15996667Y-13263476D02*
X15996667Y-13301571D01*
X16291905Y-13539667D02*
X16282381Y-13530143D01*
X16263333Y-13501571D01*
X16253809Y-13482524D01*
X16244286Y-13453952D01*
X16234762Y-13406333D01*
X16234762Y-13368238D01*
X16244286Y-13320619D01*
X16253809Y-13292048D01*
X16263333Y-13273000D01*
X16282381Y-13244428D01*
X16291905Y-13234905D01*
X16453809Y-13263476D02*
X16415714Y-13263476D01*
X16396667Y-13273000D01*
X16387143Y-13282524D01*
X16368095Y-13311095D01*
X16358571Y-13349190D01*
X16358571Y-13425381D01*
X16368095Y-13444428D01*
X16377619Y-13453952D01*
X16396667Y-13463476D01*
X16434762Y-13463476D01*
X16453809Y-13453952D01*
X16463333Y-13444428D01*
X16472857Y-13425381D01*
X16472857Y-13377762D01*
X16463333Y-13358714D01*
X16453809Y-13349190D01*
X16434762Y-13339667D01*
X16396667Y-13339667D01*
X16377619Y-13349190D01*
X16368095Y-13358714D01*
X16358571Y-13377762D01*
X16710952Y-13463476D02*
X16710952Y-13263476D01*
X16796667Y-13463476D02*
X16796667Y-13358714D01*
X16787143Y-13339667D01*
X16768095Y-13330143D01*
X16739524Y-13330143D01*
X16720476Y-13339667D01*
X16710952Y-13349190D01*
X16920476Y-13463476D02*
X16901429Y-13453952D01*
X16891905Y-13444428D01*
X16882381Y-13425381D01*
X16882381Y-13368238D01*
X16891905Y-13349190D01*
X16901429Y-13339667D01*
X16920476Y-13330143D01*
X16949048Y-13330143D01*
X16968095Y-13339667D01*
X16977619Y-13349190D01*
X16987143Y-13368238D01*
X16987143Y-13425381D01*
X16977619Y-13444428D01*
X16968095Y-13453952D01*
X16949048Y-13463476D01*
X16920476Y-13463476D01*
X17101429Y-13463476D02*
X17082381Y-13453952D01*
X17072857Y-13434905D01*
X17072857Y-13263476D01*
X17253810Y-13453952D02*
X17234762Y-13463476D01*
X17196667Y-13463476D01*
X17177619Y-13453952D01*
X17168095Y-13434905D01*
X17168095Y-13358714D01*
X17177619Y-13339667D01*
X17196667Y-13330143D01*
X17234762Y-13330143D01*
X17253810Y-13339667D01*
X17263333Y-13358714D01*
X17263333Y-13377762D01*
X17168095Y-13396809D01*
X17339524Y-13453952D02*
X17358571Y-13463476D01*
X17396667Y-13463476D01*
X17415714Y-13453952D01*
X17425238Y-13434905D01*
X17425238Y-13425381D01*
X17415714Y-13406333D01*
X17396667Y-13396809D01*
X17368095Y-13396809D01*
X17349048Y-13387286D01*
X17339524Y-13368238D01*
X17339524Y-13358714D01*
X17349048Y-13339667D01*
X17368095Y-13330143D01*
X17396667Y-13330143D01*
X17415714Y-13339667D01*
X17491905Y-13539667D02*
X17501429Y-13530143D01*
X17520476Y-13501571D01*
X17530000Y-13482524D01*
X17539524Y-13453952D01*
X17549048Y-13406333D01*
X17549048Y-13368238D01*
X17539524Y-13320619D01*
X17530000Y-13292048D01*
X17520476Y-13273000D01*
X17501429Y-13244428D01*
X17491905Y-13234905D01*
D16*
X12705356Y-13672356D02*
X12705356Y-13601644D01*
X12634644Y-13601644D01*
X12634644Y-13672356D01*
X12705356Y-13672356D01*
D12*
X13082381Y-13727476D02*
X12968095Y-13727476D01*
X13025238Y-13727476D02*
X13025238Y-13527476D01*
X13006190Y-13556048D01*
X12987143Y-13575095D01*
X12968095Y-13584619D01*
X13168095Y-13708428D02*
X13177619Y-13717952D01*
X13168095Y-13727476D01*
X13158571Y-13717952D01*
X13168095Y-13708428D01*
X13168095Y-13727476D01*
X13301428Y-13527476D02*
X13320476Y-13527476D01*
X13339524Y-13537000D01*
X13349048Y-13546524D01*
X13358571Y-13565571D01*
X13368095Y-13603667D01*
X13368095Y-13651286D01*
X13358571Y-13689381D01*
X13349048Y-13708428D01*
X13339524Y-13717952D01*
X13320476Y-13727476D01*
X13301428Y-13727476D01*
X13282381Y-13717952D01*
X13272857Y-13708428D01*
X13263333Y-13689381D01*
X13253809Y-13651286D01*
X13253809Y-13603667D01*
X13263333Y-13565571D01*
X13272857Y-13546524D01*
X13282381Y-13537000D01*
X13301428Y-13527476D01*
X13491905Y-13527476D02*
X13510952Y-13527476D01*
X13530000Y-13537000D01*
X13539524Y-13546524D01*
X13549048Y-13565571D01*
X13558571Y-13603667D01*
X13558571Y-13651286D01*
X13549048Y-13689381D01*
X13539524Y-13708428D01*
X13530000Y-13717952D01*
X13510952Y-13727476D01*
X13491905Y-13727476D01*
X13472857Y-13717952D01*
X13463333Y-13708428D01*
X13453809Y-13689381D01*
X13444286Y-13651286D01*
X13444286Y-13603667D01*
X13453809Y-13565571D01*
X13463333Y-13546524D01*
X13472857Y-13537000D01*
X13491905Y-13527476D01*
X13682381Y-13527476D02*
X13701428Y-13527476D01*
X13720476Y-13537000D01*
X13730000Y-13546524D01*
X13739524Y-13565571D01*
X13749048Y-13603667D01*
X13749048Y-13651286D01*
X13739524Y-13689381D01*
X13730000Y-13708428D01*
X13720476Y-13717952D01*
X13701428Y-13727476D01*
X13682381Y-13727476D01*
X13663333Y-13717952D01*
X13653809Y-13708428D01*
X13644286Y-13689381D01*
X13634762Y-13651286D01*
X13634762Y-13603667D01*
X13644286Y-13565571D01*
X13653809Y-13546524D01*
X13663333Y-13537000D01*
X13682381Y-13527476D01*
X13834762Y-13727476D02*
X13834762Y-13594143D01*
X13834762Y-13613190D02*
X13844286Y-13603667D01*
X13863333Y-13594143D01*
X13891905Y-13594143D01*
X13910952Y-13603667D01*
X13920476Y-13622714D01*
X13920476Y-13727476D01*
X13920476Y-13622714D02*
X13930000Y-13603667D01*
X13949048Y-13594143D01*
X13977619Y-13594143D01*
X13996667Y-13603667D01*
X14006190Y-13622714D01*
X14006190Y-13727476D01*
X14101428Y-13727476D02*
X14101428Y-13594143D01*
X14101428Y-13613190D02*
X14110952Y-13603667D01*
X14130000Y-13594143D01*
X14158571Y-13594143D01*
X14177619Y-13603667D01*
X14187143Y-13622714D01*
X14187143Y-13727476D01*
X14187143Y-13622714D02*
X14196667Y-13603667D01*
X14215714Y-13594143D01*
X14244286Y-13594143D01*
X14263333Y-13603667D01*
X14272857Y-13622714D01*
X14272857Y-13727476D01*
X14663333Y-13517952D02*
X14491905Y-13775095D01*
X14920476Y-13527476D02*
X14939524Y-13527476D01*
X14958571Y-13537000D01*
X14968095Y-13546524D01*
X14977619Y-13565571D01*
X14987143Y-13603667D01*
X14987143Y-13651286D01*
X14977619Y-13689381D01*
X14968095Y-13708428D01*
X14958571Y-13717952D01*
X14939524Y-13727476D01*
X14920476Y-13727476D01*
X14901428Y-13717952D01*
X14891905Y-13708428D01*
X14882381Y-13689381D01*
X14872857Y-13651286D01*
X14872857Y-13603667D01*
X14882381Y-13565571D01*
X14891905Y-13546524D01*
X14901428Y-13537000D01*
X14920476Y-13527476D01*
X15072857Y-13708428D02*
X15082381Y-13717952D01*
X15072857Y-13727476D01*
X15063333Y-13717952D01*
X15072857Y-13708428D01*
X15072857Y-13727476D01*
X15206190Y-13527476D02*
X15225238Y-13527476D01*
X15244286Y-13537000D01*
X15253809Y-13546524D01*
X15263333Y-13565571D01*
X15272857Y-13603667D01*
X15272857Y-13651286D01*
X15263333Y-13689381D01*
X15253809Y-13708428D01*
X15244286Y-13717952D01*
X15225238Y-13727476D01*
X15206190Y-13727476D01*
X15187143Y-13717952D01*
X15177619Y-13708428D01*
X15168095Y-13689381D01*
X15158571Y-13651286D01*
X15158571Y-13603667D01*
X15168095Y-13565571D01*
X15177619Y-13546524D01*
X15187143Y-13537000D01*
X15206190Y-13527476D01*
X15339524Y-13527476D02*
X15463333Y-13527476D01*
X15396667Y-13603667D01*
X15425238Y-13603667D01*
X15444286Y-13613190D01*
X15453809Y-13622714D01*
X15463333Y-13641762D01*
X15463333Y-13689381D01*
X15453809Y-13708428D01*
X15444286Y-13717952D01*
X15425238Y-13727476D01*
X15368095Y-13727476D01*
X15349048Y-13717952D01*
X15339524Y-13708428D01*
X15558571Y-13727476D02*
X15596667Y-13727476D01*
X15615714Y-13717952D01*
X15625238Y-13708428D01*
X15644286Y-13679857D01*
X15653809Y-13641762D01*
X15653809Y-13565571D01*
X15644286Y-13546524D01*
X15634762Y-13537000D01*
X15615714Y-13527476D01*
X15577619Y-13527476D01*
X15558571Y-13537000D01*
X15549048Y-13546524D01*
X15539524Y-13565571D01*
X15539524Y-13613190D01*
X15549048Y-13632238D01*
X15558571Y-13641762D01*
X15577619Y-13651286D01*
X15615714Y-13651286D01*
X15634762Y-13641762D01*
X15644286Y-13632238D01*
X15653809Y-13613190D01*
X15825238Y-13594143D02*
X15825238Y-13727476D01*
X15777619Y-13517952D02*
X15730000Y-13660809D01*
X15853809Y-13660809D01*
X15920476Y-13527476D02*
X15920476Y-13565571D01*
X15996667Y-13527476D02*
X15996667Y-13565571D01*
X16291905Y-13803667D02*
X16282381Y-13794143D01*
X16263333Y-13765571D01*
X16253809Y-13746524D01*
X16244286Y-13717952D01*
X16234762Y-13670333D01*
X16234762Y-13632238D01*
X16244286Y-13584619D01*
X16253809Y-13556048D01*
X16263333Y-13537000D01*
X16282381Y-13508428D01*
X16291905Y-13498905D01*
X16358571Y-13546524D02*
X16368095Y-13537000D01*
X16387143Y-13527476D01*
X16434762Y-13527476D01*
X16453809Y-13537000D01*
X16463333Y-13546524D01*
X16472857Y-13565571D01*
X16472857Y-13584619D01*
X16463333Y-13613190D01*
X16349048Y-13727476D01*
X16472857Y-13727476D01*
X16710952Y-13727476D02*
X16710952Y-13527476D01*
X16796667Y-13727476D02*
X16796667Y-13622714D01*
X16787143Y-13603667D01*
X16768095Y-13594143D01*
X16739524Y-13594143D01*
X16720476Y-13603667D01*
X16710952Y-13613190D01*
X16920476Y-13727476D02*
X16901429Y-13717952D01*
X16891905Y-13708428D01*
X16882381Y-13689381D01*
X16882381Y-13632238D01*
X16891905Y-13613190D01*
X16901429Y-13603667D01*
X16920476Y-13594143D01*
X16949048Y-13594143D01*
X16968095Y-13603667D01*
X16977619Y-13613190D01*
X16987143Y-13632238D01*
X16987143Y-13689381D01*
X16977619Y-13708428D01*
X16968095Y-13717952D01*
X16949048Y-13727476D01*
X16920476Y-13727476D01*
X17101429Y-13727476D02*
X17082381Y-13717952D01*
X17072857Y-13698905D01*
X17072857Y-13527476D01*
X17253810Y-13717952D02*
X17234762Y-13727476D01*
X17196667Y-13727476D01*
X17177619Y-13717952D01*
X17168095Y-13698905D01*
X17168095Y-13622714D01*
X17177619Y-13603667D01*
X17196667Y-13594143D01*
X17234762Y-13594143D01*
X17253810Y-13603667D01*
X17263333Y-13622714D01*
X17263333Y-13641762D01*
X17168095Y-13660809D01*
X17339524Y-13717952D02*
X17358571Y-13727476D01*
X17396667Y-13727476D01*
X17415714Y-13717952D01*
X17425238Y-13698905D01*
X17425238Y-13689381D01*
X17415714Y-13670333D01*
X17396667Y-13660809D01*
X17368095Y-13660809D01*
X17349048Y-13651286D01*
X17339524Y-13632238D01*
X17339524Y-13622714D01*
X17349048Y-13603667D01*
X17368095Y-13594143D01*
X17396667Y-13594143D01*
X17415714Y-13603667D01*
X17491905Y-13803667D02*
X17501429Y-13794143D01*
X17520476Y-13765571D01*
X17530000Y-13746524D01*
X17539524Y-13717952D01*
X17549048Y-13670333D01*
X17549048Y-13632238D01*
X17539524Y-13584619D01*
X17530000Y-13556048D01*
X17520476Y-13537000D01*
X17501429Y-13508428D01*
X17491905Y-13498905D01*
D17*
X12665000Y-13956000D02*
X12720000Y-13901000D01*
X12665000Y-13846000D01*
X12610000Y-13901000D01*
X12665000Y-13956000D01*
D12*
X13082381Y-13991476D02*
X12968095Y-13991476D01*
X13025238Y-13991476D02*
X13025238Y-13791476D01*
X13006190Y-13820048D01*
X12987143Y-13839095D01*
X12968095Y-13848619D01*
X13168095Y-13972428D02*
X13177619Y-13981952D01*
X13168095Y-13991476D01*
X13158571Y-13981952D01*
X13168095Y-13972428D01*
X13168095Y-13991476D01*
X13368095Y-13991476D02*
X13253809Y-13991476D01*
X13310952Y-13991476D02*
X13310952Y-13791476D01*
X13291905Y-13820048D01*
X13272857Y-13839095D01*
X13253809Y-13848619D01*
X13491905Y-13791476D02*
X13510952Y-13791476D01*
X13530000Y-13801000D01*
X13539524Y-13810524D01*
X13549048Y-13829571D01*
X13558571Y-13867667D01*
X13558571Y-13915286D01*
X13549048Y-13953381D01*
X13539524Y-13972428D01*
X13530000Y-13981952D01*
X13510952Y-13991476D01*
X13491905Y-13991476D01*
X13472857Y-13981952D01*
X13463333Y-13972428D01*
X13453809Y-13953381D01*
X13444286Y-13915286D01*
X13444286Y-13867667D01*
X13453809Y-13829571D01*
X13463333Y-13810524D01*
X13472857Y-13801000D01*
X13491905Y-13791476D01*
X13682381Y-13791476D02*
X13701428Y-13791476D01*
X13720476Y-13801000D01*
X13730000Y-13810524D01*
X13739524Y-13829571D01*
X13749048Y-13867667D01*
X13749048Y-13915286D01*
X13739524Y-13953381D01*
X13730000Y-13972428D01*
X13720476Y-13981952D01*
X13701428Y-13991476D01*
X13682381Y-13991476D01*
X13663333Y-13981952D01*
X13653809Y-13972428D01*
X13644286Y-13953381D01*
X13634762Y-13915286D01*
X13634762Y-13867667D01*
X13644286Y-13829571D01*
X13653809Y-13810524D01*
X13663333Y-13801000D01*
X13682381Y-13791476D01*
X13834762Y-13991476D02*
X13834762Y-13858143D01*
X13834762Y-13877190D02*
X13844286Y-13867667D01*
X13863333Y-13858143D01*
X13891905Y-13858143D01*
X13910952Y-13867667D01*
X13920476Y-13886714D01*
X13920476Y-13991476D01*
X13920476Y-13886714D02*
X13930000Y-13867667D01*
X13949048Y-13858143D01*
X13977619Y-13858143D01*
X13996667Y-13867667D01*
X14006190Y-13886714D01*
X14006190Y-13991476D01*
X14101428Y-13991476D02*
X14101428Y-13858143D01*
X14101428Y-13877190D02*
X14110952Y-13867667D01*
X14130000Y-13858143D01*
X14158571Y-13858143D01*
X14177619Y-13867667D01*
X14187143Y-13886714D01*
X14187143Y-13991476D01*
X14187143Y-13886714D02*
X14196667Y-13867667D01*
X14215714Y-13858143D01*
X14244286Y-13858143D01*
X14263333Y-13867667D01*
X14272857Y-13886714D01*
X14272857Y-13991476D01*
X14663333Y-13781952D02*
X14491905Y-14039095D01*
X14920476Y-13791476D02*
X14939524Y-13791476D01*
X14958571Y-13801000D01*
X14968095Y-13810524D01*
X14977619Y-13829571D01*
X14987143Y-13867667D01*
X14987143Y-13915286D01*
X14977619Y-13953381D01*
X14968095Y-13972428D01*
X14958571Y-13981952D01*
X14939524Y-13991476D01*
X14920476Y-13991476D01*
X14901428Y-13981952D01*
X14891905Y-13972428D01*
X14882381Y-13953381D01*
X14872857Y-13915286D01*
X14872857Y-13867667D01*
X14882381Y-13829571D01*
X14891905Y-13810524D01*
X14901428Y-13801000D01*
X14920476Y-13791476D01*
X15072857Y-13972428D02*
X15082381Y-13981952D01*
X15072857Y-13991476D01*
X15063333Y-13981952D01*
X15072857Y-13972428D01*
X15072857Y-13991476D01*
X15206190Y-13791476D02*
X15225238Y-13791476D01*
X15244286Y-13801000D01*
X15253809Y-13810524D01*
X15263333Y-13829571D01*
X15272857Y-13867667D01*
X15272857Y-13915286D01*
X15263333Y-13953381D01*
X15253809Y-13972428D01*
X15244286Y-13981952D01*
X15225238Y-13991476D01*
X15206190Y-13991476D01*
X15187143Y-13981952D01*
X15177619Y-13972428D01*
X15168095Y-13953381D01*
X15158571Y-13915286D01*
X15158571Y-13867667D01*
X15168095Y-13829571D01*
X15177619Y-13810524D01*
X15187143Y-13801000D01*
X15206190Y-13791476D01*
X15444286Y-13858143D02*
X15444286Y-13991476D01*
X15396667Y-13781952D02*
X15349048Y-13924809D01*
X15472857Y-13924809D01*
X15530000Y-13791476D02*
X15653809Y-13791476D01*
X15587143Y-13867667D01*
X15615714Y-13867667D01*
X15634762Y-13877190D01*
X15644286Y-13886714D01*
X15653809Y-13905762D01*
X15653809Y-13953381D01*
X15644286Y-13972428D01*
X15634762Y-13981952D01*
X15615714Y-13991476D01*
X15558571Y-13991476D01*
X15539524Y-13981952D01*
X15530000Y-13972428D01*
X15720476Y-13791476D02*
X15844286Y-13791476D01*
X15777619Y-13867667D01*
X15806190Y-13867667D01*
X15825238Y-13877190D01*
X15834762Y-13886714D01*
X15844286Y-13905762D01*
X15844286Y-13953381D01*
X15834762Y-13972428D01*
X15825238Y-13981952D01*
X15806190Y-13991476D01*
X15749048Y-13991476D01*
X15730000Y-13981952D01*
X15720476Y-13972428D01*
X15920476Y-13791476D02*
X15920476Y-13829571D01*
X15996667Y-13791476D02*
X15996667Y-13829571D01*
X16291905Y-14067667D02*
X16282381Y-14058143D01*
X16263333Y-14029571D01*
X16253809Y-14010524D01*
X16244286Y-13981952D01*
X16234762Y-13934333D01*
X16234762Y-13896238D01*
X16244286Y-13848619D01*
X16253809Y-13820048D01*
X16263333Y-13801000D01*
X16282381Y-13772428D01*
X16291905Y-13762905D01*
X16463333Y-13791476D02*
X16368095Y-13791476D01*
X16358571Y-13886714D01*
X16368095Y-13877190D01*
X16387143Y-13867667D01*
X16434762Y-13867667D01*
X16453809Y-13877190D01*
X16463333Y-13886714D01*
X16472857Y-13905762D01*
X16472857Y-13953381D01*
X16463333Y-13972428D01*
X16453809Y-13981952D01*
X16434762Y-13991476D01*
X16387143Y-13991476D01*
X16368095Y-13981952D01*
X16358571Y-13972428D01*
X16710952Y-13991476D02*
X16710952Y-13791476D01*
X16796667Y-13991476D02*
X16796667Y-13886714D01*
X16787143Y-13867667D01*
X16768095Y-13858143D01*
X16739524Y-13858143D01*
X16720476Y-13867667D01*
X16710952Y-13877190D01*
X16920476Y-13991476D02*
X16901429Y-13981952D01*
X16891905Y-13972428D01*
X16882381Y-13953381D01*
X16882381Y-13896238D01*
X16891905Y-13877190D01*
X16901429Y-13867667D01*
X16920476Y-13858143D01*
X16949048Y-13858143D01*
X16968095Y-13867667D01*
X16977619Y-13877190D01*
X16987143Y-13896238D01*
X16987143Y-13953381D01*
X16977619Y-13972428D01*
X16968095Y-13981952D01*
X16949048Y-13991476D01*
X16920476Y-13991476D01*
X17101429Y-13991476D02*
X17082381Y-13981952D01*
X17072857Y-13962905D01*
X17072857Y-13791476D01*
X17253810Y-13981952D02*
X17234762Y-13991476D01*
X17196667Y-13991476D01*
X17177619Y-13981952D01*
X17168095Y-13962905D01*
X17168095Y-13886714D01*
X17177619Y-13867667D01*
X17196667Y-13858143D01*
X17234762Y-13858143D01*
X17253810Y-13867667D01*
X17263333Y-13886714D01*
X17263333Y-13905762D01*
X17168095Y-13924809D01*
X17339524Y-13981952D02*
X17358571Y-13991476D01*
X17396667Y-13991476D01*
X17415714Y-13981952D01*
X17425238Y-13962905D01*
X17425238Y-13953381D01*
X17415714Y-13934333D01*
X17396667Y-13924809D01*
X17368095Y-13924809D01*
X17349048Y-13915286D01*
X17339524Y-13896238D01*
X17339524Y-13886714D01*
X17349048Y-13867667D01*
X17368095Y-13858143D01*
X17396667Y-13858143D01*
X17415714Y-13867667D01*
X17491905Y-14067667D02*
X17501429Y-14058143D01*
X17520476Y-14029571D01*
X17530000Y-14010524D01*
X17539524Y-13981952D01*
X17549048Y-13934333D01*
X17549048Y-13896238D01*
X17539524Y-13848619D01*
X17530000Y-13820048D01*
X17520476Y-13801000D01*
X17501429Y-13772428D01*
X17491905Y-13762905D01*
X12520000Y-14065000D02*
X12720000Y-14265000D01*
X12720000Y-14065000D02*
X12520000Y-14265000D01*
X12720000Y-14165000D02*
G75*
G03*
X12720000Y-14165000I-100000J0D01*
G01*
X12958571Y-14055476D02*
X13082381Y-14055476D01*
X13015714Y-14131667D01*
X13044286Y-14131667D01*
X13063333Y-14141190D01*
X13072857Y-14150714D01*
X13082381Y-14169762D01*
X13082381Y-14217381D01*
X13072857Y-14236428D01*
X13063333Y-14245952D01*
X13044286Y-14255476D01*
X12987143Y-14255476D01*
X12968095Y-14245952D01*
X12958571Y-14236428D01*
X13168095Y-14236428D02*
X13177619Y-14245952D01*
X13168095Y-14255476D01*
X13158571Y-14245952D01*
X13168095Y-14236428D01*
X13168095Y-14255476D01*
X13253809Y-14074524D02*
X13263333Y-14065000D01*
X13282381Y-14055476D01*
X13330000Y-14055476D01*
X13349048Y-14065000D01*
X13358571Y-14074524D01*
X13368095Y-14093571D01*
X13368095Y-14112619D01*
X13358571Y-14141190D01*
X13244286Y-14255476D01*
X13368095Y-14255476D01*
X13491905Y-14055476D02*
X13510952Y-14055476D01*
X13530000Y-14065000D01*
X13539524Y-14074524D01*
X13549048Y-14093571D01*
X13558571Y-14131667D01*
X13558571Y-14179286D01*
X13549048Y-14217381D01*
X13539524Y-14236428D01*
X13530000Y-14245952D01*
X13510952Y-14255476D01*
X13491905Y-14255476D01*
X13472857Y-14245952D01*
X13463333Y-14236428D01*
X13453809Y-14217381D01*
X13444286Y-14179286D01*
X13444286Y-14131667D01*
X13453809Y-14093571D01*
X13463333Y-14074524D01*
X13472857Y-14065000D01*
X13491905Y-14055476D01*
X13682381Y-14055476D02*
X13701428Y-14055476D01*
X13720476Y-14065000D01*
X13730000Y-14074524D01*
X13739524Y-14093571D01*
X13749048Y-14131667D01*
X13749048Y-14179286D01*
X13739524Y-14217381D01*
X13730000Y-14236428D01*
X13720476Y-14245952D01*
X13701428Y-14255476D01*
X13682381Y-14255476D01*
X13663333Y-14245952D01*
X13653809Y-14236428D01*
X13644286Y-14217381D01*
X13634762Y-14179286D01*
X13634762Y-14131667D01*
X13644286Y-14093571D01*
X13653809Y-14074524D01*
X13663333Y-14065000D01*
X13682381Y-14055476D01*
X13834762Y-14255476D02*
X13834762Y-14122143D01*
X13834762Y-14141190D02*
X13844286Y-14131667D01*
X13863333Y-14122143D01*
X13891905Y-14122143D01*
X13910952Y-14131667D01*
X13920476Y-14150714D01*
X13920476Y-14255476D01*
X13920476Y-14150714D02*
X13930000Y-14131667D01*
X13949048Y-14122143D01*
X13977619Y-14122143D01*
X13996667Y-14131667D01*
X14006190Y-14150714D01*
X14006190Y-14255476D01*
X14101428Y-14255476D02*
X14101428Y-14122143D01*
X14101428Y-14141190D02*
X14110952Y-14131667D01*
X14130000Y-14122143D01*
X14158571Y-14122143D01*
X14177619Y-14131667D01*
X14187143Y-14150714D01*
X14187143Y-14255476D01*
X14187143Y-14150714D02*
X14196667Y-14131667D01*
X14215714Y-14122143D01*
X14244286Y-14122143D01*
X14263333Y-14131667D01*
X14272857Y-14150714D01*
X14272857Y-14255476D01*
X14663333Y-14045952D02*
X14491905Y-14303095D01*
X14920476Y-14055476D02*
X14939524Y-14055476D01*
X14958571Y-14065000D01*
X14968095Y-14074524D01*
X14977619Y-14093571D01*
X14987143Y-14131667D01*
X14987143Y-14179286D01*
X14977619Y-14217381D01*
X14968095Y-14236428D01*
X14958571Y-14245952D01*
X14939524Y-14255476D01*
X14920476Y-14255476D01*
X14901428Y-14245952D01*
X14891905Y-14236428D01*
X14882381Y-14217381D01*
X14872857Y-14179286D01*
X14872857Y-14131667D01*
X14882381Y-14093571D01*
X14891905Y-14074524D01*
X14901428Y-14065000D01*
X14920476Y-14055476D01*
X15072857Y-14236428D02*
X15082381Y-14245952D01*
X15072857Y-14255476D01*
X15063333Y-14245952D01*
X15072857Y-14236428D01*
X15072857Y-14255476D01*
X15272857Y-14255476D02*
X15158571Y-14255476D01*
X15215714Y-14255476D02*
X15215714Y-14055476D01*
X15196667Y-14084048D01*
X15177619Y-14103095D01*
X15158571Y-14112619D01*
X15349048Y-14074524D02*
X15358571Y-14065000D01*
X15377619Y-14055476D01*
X15425238Y-14055476D01*
X15444286Y-14065000D01*
X15453809Y-14074524D01*
X15463333Y-14093571D01*
X15463333Y-14112619D01*
X15453809Y-14141190D01*
X15339524Y-14255476D01*
X15463333Y-14255476D01*
X15634762Y-14055476D02*
X15596667Y-14055476D01*
X15577619Y-14065000D01*
X15568095Y-14074524D01*
X15549048Y-14103095D01*
X15539524Y-14141190D01*
X15539524Y-14217381D01*
X15549048Y-14236428D01*
X15558571Y-14245952D01*
X15577619Y-14255476D01*
X15615714Y-14255476D01*
X15634762Y-14245952D01*
X15644286Y-14236428D01*
X15653809Y-14217381D01*
X15653809Y-14169762D01*
X15644286Y-14150714D01*
X15634762Y-14141190D01*
X15615714Y-14131667D01*
X15577619Y-14131667D01*
X15558571Y-14141190D01*
X15549048Y-14150714D01*
X15539524Y-14169762D01*
X15777619Y-14055476D02*
X15796667Y-14055476D01*
X15815714Y-14065000D01*
X15825238Y-14074524D01*
X15834762Y-14093571D01*
X15844286Y-14131667D01*
X15844286Y-14179286D01*
X15834762Y-14217381D01*
X15825238Y-14236428D01*
X15815714Y-14245952D01*
X15796667Y-14255476D01*
X15777619Y-14255476D01*
X15758571Y-14245952D01*
X15749048Y-14236428D01*
X15739524Y-14217381D01*
X15730000Y-14179286D01*
X15730000Y-14131667D01*
X15739524Y-14093571D01*
X15749048Y-14074524D01*
X15758571Y-14065000D01*
X15777619Y-14055476D01*
X15920476Y-14055476D02*
X15920476Y-14093571D01*
X15996667Y-14055476D02*
X15996667Y-14093571D01*
X16291905Y-14331667D02*
X16282381Y-14322143D01*
X16263333Y-14293571D01*
X16253809Y-14274524D01*
X16244286Y-14245952D01*
X16234762Y-14198333D01*
X16234762Y-14160238D01*
X16244286Y-14112619D01*
X16253809Y-14084048D01*
X16263333Y-14065000D01*
X16282381Y-14036428D01*
X16291905Y-14026905D01*
X16358571Y-14074524D02*
X16368095Y-14065000D01*
X16387143Y-14055476D01*
X16434762Y-14055476D01*
X16453809Y-14065000D01*
X16463333Y-14074524D01*
X16472857Y-14093571D01*
X16472857Y-14112619D01*
X16463333Y-14141190D01*
X16349048Y-14255476D01*
X16472857Y-14255476D01*
X16710952Y-14255476D02*
X16710952Y-14055476D01*
X16796667Y-14255476D02*
X16796667Y-14150714D01*
X16787143Y-14131667D01*
X16768095Y-14122143D01*
X16739524Y-14122143D01*
X16720476Y-14131667D01*
X16710952Y-14141190D01*
X16920476Y-14255476D02*
X16901429Y-14245952D01*
X16891905Y-14236428D01*
X16882381Y-14217381D01*
X16882381Y-14160238D01*
X16891905Y-14141190D01*
X16901429Y-14131667D01*
X16920476Y-14122143D01*
X16949048Y-14122143D01*
X16968095Y-14131667D01*
X16977619Y-14141190D01*
X16987143Y-14160238D01*
X16987143Y-14217381D01*
X16977619Y-14236428D01*
X16968095Y-14245952D01*
X16949048Y-14255476D01*
X16920476Y-14255476D01*
X17101429Y-14255476D02*
X17082381Y-14245952D01*
X17072857Y-14226905D01*
X17072857Y-14055476D01*
X17253810Y-14245952D02*
X17234762Y-14255476D01*
X17196667Y-14255476D01*
X17177619Y-14245952D01*
X17168095Y-14226905D01*
X17168095Y-14150714D01*
X17177619Y-14131667D01*
X17196667Y-14122143D01*
X17234762Y-14122143D01*
X17253810Y-14131667D01*
X17263333Y-14150714D01*
X17263333Y-14169762D01*
X17168095Y-14188809D01*
X17339524Y-14245952D02*
X17358571Y-14255476D01*
X17396667Y-14255476D01*
X17415714Y-14245952D01*
X17425238Y-14226905D01*
X17425238Y-14217381D01*
X17415714Y-14198333D01*
X17396667Y-14188809D01*
X17368095Y-14188809D01*
X17349048Y-14179286D01*
X17339524Y-14160238D01*
X17339524Y-14150714D01*
X17349048Y-14131667D01*
X17368095Y-14122143D01*
X17396667Y-14122143D01*
X17415714Y-14131667D01*
X17491905Y-14331667D02*
X17501429Y-14322143D01*
X17520476Y-14293571D01*
X17530000Y-14274524D01*
X17539524Y-14245952D01*
X17549048Y-14198333D01*
X17549048Y-14160238D01*
X17539524Y-14112619D01*
X17530000Y-14084048D01*
X17520476Y-14065000D01*
X17501429Y-14036428D01*
X17491905Y-14026905D01*
M02*
