G04 #@! TF.GenerationSoftware,KiCad,Pcbnew,(6.0.1)*
G04 #@! TF.CreationDate,2022-03-21T13:55:18+01:00*
G04 #@! TF.ProjectId,ERC_2022_GripperBoard,4552435f-3230-4323-925f-477269707065,rev?*
G04 #@! TF.SameCoordinates,Original*
G04 #@! TF.FileFunction,Legend,Bot*
G04 #@! TF.FilePolarity,Positive*
%FSLAX46Y46*%
G04 Gerber Fmt 4.6, Leading zero omitted, Abs format (unit mm)*
G04 Created by KiCad (PCBNEW (6.0.1)) date 2022-03-21 13:55:18*
%MOMM*%
%LPD*%
G01*
G04 APERTURE LIST*
G04 Aperture macros list*
%AMRoundRect*
0 Rectangle with rounded corners*
0 $1 Rounding radius*
0 $2 $3 $4 $5 $6 $7 $8 $9 X,Y pos of 4 corners*
0 Add a 4 corners polygon primitive as box body*
4,1,4,$2,$3,$4,$5,$6,$7,$8,$9,$2,$3,0*
0 Add four circle primitives for the rounded corners*
1,1,$1+$1,$2,$3*
1,1,$1+$1,$4,$5*
1,1,$1+$1,$6,$7*
1,1,$1+$1,$8,$9*
0 Add four rect primitives between the rounded corners*
20,1,$1+$1,$2,$3,$4,$5,0*
20,1,$1+$1,$4,$5,$6,$7,0*
20,1,$1+$1,$6,$7,$8,$9,0*
20,1,$1+$1,$8,$9,$2,$3,0*%
G04 Aperture macros list end*
%ADD10C,0.150000*%
G04 #@! TA.AperFunction,Profile*
%ADD11C,0.100000*%
G04 #@! TD*
G04 #@! TA.AperFunction,Profile*
%ADD12C,0.150000*%
G04 #@! TD*
%ADD13C,0.100000*%
%ADD14C,0.101600*%
%ADD15C,0.120000*%
%ADD16C,0.127000*%
%ADD17C,0.066040*%
%ADD18C,1.700000*%
%ADD19C,5.600000*%
%ADD20O,1.524000X1.524000*%
%ADD21R,1.524000X1.524000*%
%ADD22C,1.524000*%
%ADD23R,1.700000X1.700000*%
%ADD24O,1.700000X1.700000*%
%ADD25R,1.500000X2.000000*%
%ADD26R,3.800000X2.000000*%
%ADD27RoundRect,0.150000X-0.587500X-0.150000X0.587500X-0.150000X0.587500X0.150000X-0.587500X0.150000X0*%
%ADD28RoundRect,0.250000X0.425000X-0.450000X0.425000X0.450000X-0.425000X0.450000X-0.425000X-0.450000X0*%
%ADD29RoundRect,0.250000X0.450000X0.425000X-0.450000X0.425000X-0.450000X-0.425000X0.450000X-0.425000X0*%
%ADD30RoundRect,0.250000X0.262500X0.450000X-0.262500X0.450000X-0.262500X-0.450000X0.262500X-0.450000X0*%
%ADD31O,2.748280X1.998980*%
%ADD32O,1.016000X2.032000*%
%ADD33C,1.143000*%
%ADD34RoundRect,0.250000X0.450000X-0.262500X0.450000X0.262500X-0.450000X0.262500X-0.450000X-0.262500X0*%
%ADD35RoundRect,0.250000X0.787500X0.925000X-0.787500X0.925000X-0.787500X-0.925000X0.787500X-0.925000X0*%
G04 APERTURE END LIST*
D10*
X128500000Y-121000000D02*
X134500000Y-121000000D01*
X134500000Y-121000000D02*
X134500000Y-109000000D01*
X134500000Y-109000000D02*
X128500000Y-109000000D01*
X128500000Y-109000000D02*
X128500000Y-121000000D01*
X130500000Y-109000000D02*
X130500000Y-121000000D01*
X128500000Y-114000000D02*
X134500000Y-114000000D01*
X132500000Y-109000000D02*
X132500000Y-121000000D01*
D11*
X157000000Y-67000000D02*
X157000000Y-101500000D01*
D12*
X141305000Y-99355000D02*
G75*
G03*
X141305000Y-99355000I-1100000J0D01*
G01*
D11*
X127250000Y-120500000D02*
G75*
G03*
X128750000Y-122000000I1500001J1D01*
G01*
X144425000Y-70996573D02*
X131250000Y-71000000D01*
X155500000Y-103000000D02*
G75*
G03*
X157000000Y-101500000I-1J1500001D01*
G01*
X150000000Y-120500000D02*
X150000000Y-104500000D01*
X151500000Y-103000000D02*
X155500000Y-103000000D01*
D12*
X154705000Y-83455000D02*
G75*
G03*
X154705000Y-83455000I-1100000J0D01*
G01*
D11*
X157000000Y-67000000D02*
G75*
G03*
X155000000Y-65000000I-1999999J1D01*
G01*
X128750000Y-122000000D02*
X148500000Y-122000000D01*
X131250000Y-71000000D02*
G75*
G03*
X127250000Y-75000000I0J-4000000D01*
G01*
X127250000Y-75000000D02*
X127250000Y-120500000D01*
X151500000Y-103000000D02*
G75*
G03*
X150000000Y-104500000I1J-1500001D01*
G01*
X150500000Y-64996571D02*
G75*
G03*
X148496574Y-66996573I1J-2003430D01*
G01*
X144425000Y-70996573D02*
G75*
G03*
X148496573Y-66996573I70945J3999999D01*
G01*
X148500000Y-122000000D02*
G75*
G03*
X150000000Y-120500000I-1J1500001D01*
G01*
X150500000Y-64996571D02*
X155000000Y-65000000D01*
D13*
X133771428Y-115242857D02*
X133771428Y-114900000D01*
X133771428Y-115071428D02*
X133171428Y-115071428D01*
X133257142Y-115014285D01*
X133314285Y-114957142D01*
X133342857Y-114900000D01*
X133714285Y-115500000D02*
X133742857Y-115528571D01*
X133771428Y-115500000D01*
X133742857Y-115471428D01*
X133714285Y-115500000D01*
X133771428Y-115500000D01*
X133171428Y-115900000D02*
X133171428Y-115957142D01*
X133200000Y-116014285D01*
X133228571Y-116042857D01*
X133285714Y-116071428D01*
X133400000Y-116100000D01*
X133542857Y-116100000D01*
X133657142Y-116071428D01*
X133714285Y-116042857D01*
X133742857Y-116014285D01*
X133771428Y-115957142D01*
X133771428Y-115900000D01*
X133742857Y-115842857D01*
X133714285Y-115814285D01*
X133657142Y-115785714D01*
X133542857Y-115757142D01*
X133400000Y-115757142D01*
X133285714Y-115785714D01*
X133228571Y-115814285D01*
X133200000Y-115842857D01*
X133171428Y-115900000D01*
X129171428Y-109628571D02*
X129171428Y-109742857D01*
X129200000Y-109800000D01*
X129257142Y-109857142D01*
X129371428Y-109885714D01*
X129571428Y-109885714D01*
X129685714Y-109857142D01*
X129742857Y-109800000D01*
X129771428Y-109742857D01*
X129771428Y-109628571D01*
X129742857Y-109571428D01*
X129685714Y-109514285D01*
X129571428Y-109485714D01*
X129371428Y-109485714D01*
X129257142Y-109514285D01*
X129200000Y-109571428D01*
X129171428Y-109628571D01*
X129771428Y-110142857D02*
X129371428Y-110142857D01*
X129485714Y-110142857D02*
X129428571Y-110171428D01*
X129400000Y-110200000D01*
X129371428Y-110257142D01*
X129371428Y-110314285D01*
X129771428Y-110771428D02*
X129171428Y-110771428D01*
X129742857Y-110771428D02*
X129771428Y-110714285D01*
X129771428Y-110600000D01*
X129742857Y-110542857D01*
X129714285Y-110514285D01*
X129657142Y-110485714D01*
X129485714Y-110485714D01*
X129428571Y-110514285D01*
X129400000Y-110542857D01*
X129371428Y-110600000D01*
X129371428Y-110714285D01*
X129400000Y-110771428D01*
X129742857Y-111285714D02*
X129771428Y-111228571D01*
X129771428Y-111114285D01*
X129742857Y-111057142D01*
X129685714Y-111028571D01*
X129457142Y-111028571D01*
X129400000Y-111057142D01*
X129371428Y-111114285D01*
X129371428Y-111228571D01*
X129400000Y-111285714D01*
X129457142Y-111314285D01*
X129514285Y-111314285D01*
X129571428Y-111028571D01*
X129771428Y-111571428D02*
X129371428Y-111571428D01*
X129485714Y-111571428D02*
X129428571Y-111600000D01*
X129400000Y-111628571D01*
X129371428Y-111685714D01*
X129371428Y-111742857D01*
X129371428Y-112400000D02*
X129771428Y-112400000D01*
X129428571Y-112400000D02*
X129400000Y-112428571D01*
X129371428Y-112485714D01*
X129371428Y-112571428D01*
X129400000Y-112628571D01*
X129457142Y-112657142D01*
X129771428Y-112657142D01*
X129771428Y-113028571D02*
X129742857Y-112971428D01*
X129714285Y-112942857D01*
X129657142Y-112914285D01*
X129485714Y-112914285D01*
X129428571Y-112942857D01*
X129400000Y-112971428D01*
X129371428Y-113028571D01*
X129371428Y-113114285D01*
X129400000Y-113171428D01*
X129428571Y-113200000D01*
X129485714Y-113228571D01*
X129657142Y-113228571D01*
X129714285Y-113200000D01*
X129742857Y-113171428D01*
X129771428Y-113114285D01*
X129771428Y-113028571D01*
X129714285Y-113485714D02*
X129742857Y-113514285D01*
X129771428Y-113485714D01*
X129742857Y-113457142D01*
X129714285Y-113485714D01*
X129771428Y-113485714D01*
X133771428Y-110128571D02*
X133485714Y-109928571D01*
X133771428Y-109785714D02*
X133171428Y-109785714D01*
X133171428Y-110014285D01*
X133200000Y-110071428D01*
X133228571Y-110100000D01*
X133285714Y-110128571D01*
X133371428Y-110128571D01*
X133428571Y-110100000D01*
X133457142Y-110071428D01*
X133485714Y-110014285D01*
X133485714Y-109785714D01*
X133742857Y-110614285D02*
X133771428Y-110557142D01*
X133771428Y-110442857D01*
X133742857Y-110385714D01*
X133685714Y-110357142D01*
X133457142Y-110357142D01*
X133400000Y-110385714D01*
X133371428Y-110442857D01*
X133371428Y-110557142D01*
X133400000Y-110614285D01*
X133457142Y-110642857D01*
X133514285Y-110642857D01*
X133571428Y-110357142D01*
X133371428Y-110842857D02*
X133771428Y-110985714D01*
X133371428Y-111128571D01*
X133771428Y-111357142D02*
X133371428Y-111357142D01*
X133171428Y-111357142D02*
X133200000Y-111328571D01*
X133228571Y-111357142D01*
X133200000Y-111385714D01*
X133171428Y-111357142D01*
X133228571Y-111357142D01*
X133742857Y-111614285D02*
X133771428Y-111671428D01*
X133771428Y-111785714D01*
X133742857Y-111842857D01*
X133685714Y-111871428D01*
X133657142Y-111871428D01*
X133600000Y-111842857D01*
X133571428Y-111785714D01*
X133571428Y-111700000D01*
X133542857Y-111642857D01*
X133485714Y-111614285D01*
X133457142Y-111614285D01*
X133400000Y-111642857D01*
X133371428Y-111700000D01*
X133371428Y-111785714D01*
X133400000Y-111842857D01*
X133771428Y-112128571D02*
X133371428Y-112128571D01*
X133171428Y-112128571D02*
X133200000Y-112100000D01*
X133228571Y-112128571D01*
X133200000Y-112157142D01*
X133171428Y-112128571D01*
X133228571Y-112128571D01*
X133771428Y-112500000D02*
X133742857Y-112442857D01*
X133714285Y-112414285D01*
X133657142Y-112385714D01*
X133485714Y-112385714D01*
X133428571Y-112414285D01*
X133400000Y-112442857D01*
X133371428Y-112500000D01*
X133371428Y-112585714D01*
X133400000Y-112642857D01*
X133428571Y-112671428D01*
X133485714Y-112700000D01*
X133657142Y-112700000D01*
X133714285Y-112671428D01*
X133742857Y-112642857D01*
X133771428Y-112585714D01*
X133771428Y-112500000D01*
X133371428Y-112957142D02*
X133771428Y-112957142D01*
X133428571Y-112957142D02*
X133400000Y-112985714D01*
X133371428Y-113042857D01*
X133371428Y-113128571D01*
X133400000Y-113185714D01*
X133457142Y-113214285D01*
X133771428Y-113214285D01*
X131228571Y-114614285D02*
X131200000Y-114642857D01*
X131171428Y-114700000D01*
X131171428Y-114842857D01*
X131200000Y-114900000D01*
X131228571Y-114928571D01*
X131285714Y-114957142D01*
X131342857Y-114957142D01*
X131428571Y-114928571D01*
X131771428Y-114585714D01*
X131771428Y-114957142D01*
X131171428Y-115328571D02*
X131171428Y-115385714D01*
X131200000Y-115442857D01*
X131228571Y-115471428D01*
X131285714Y-115500000D01*
X131400000Y-115528571D01*
X131542857Y-115528571D01*
X131657142Y-115500000D01*
X131714285Y-115471428D01*
X131742857Y-115442857D01*
X131771428Y-115385714D01*
X131771428Y-115328571D01*
X131742857Y-115271428D01*
X131714285Y-115242857D01*
X131657142Y-115214285D01*
X131542857Y-115185714D01*
X131400000Y-115185714D01*
X131285714Y-115214285D01*
X131228571Y-115242857D01*
X131200000Y-115271428D01*
X131171428Y-115328571D01*
X131714285Y-115785714D02*
X131742857Y-115814285D01*
X131771428Y-115785714D01*
X131742857Y-115757142D01*
X131714285Y-115785714D01*
X131771428Y-115785714D01*
X131171428Y-116185714D02*
X131171428Y-116242857D01*
X131200000Y-116300000D01*
X131228571Y-116328571D01*
X131285714Y-116357142D01*
X131400000Y-116385714D01*
X131542857Y-116385714D01*
X131657142Y-116357142D01*
X131714285Y-116328571D01*
X131742857Y-116300000D01*
X131771428Y-116242857D01*
X131771428Y-116185714D01*
X131742857Y-116128571D01*
X131714285Y-116100000D01*
X131657142Y-116071428D01*
X131542857Y-116042857D01*
X131400000Y-116042857D01*
X131285714Y-116071428D01*
X131228571Y-116100000D01*
X131200000Y-116128571D01*
X131171428Y-116185714D01*
X131171428Y-116585714D02*
X131171428Y-116957142D01*
X131400000Y-116757142D01*
X131400000Y-116842857D01*
X131428571Y-116900000D01*
X131457142Y-116928571D01*
X131514285Y-116957142D01*
X131657142Y-116957142D01*
X131714285Y-116928571D01*
X131742857Y-116900000D01*
X131771428Y-116842857D01*
X131771428Y-116671428D01*
X131742857Y-116614285D01*
X131714285Y-116585714D01*
X131714285Y-117214285D02*
X131742857Y-117242857D01*
X131771428Y-117214285D01*
X131742857Y-117185714D01*
X131714285Y-117214285D01*
X131771428Y-117214285D01*
X131228571Y-117471428D02*
X131200000Y-117500000D01*
X131171428Y-117557142D01*
X131171428Y-117700000D01*
X131200000Y-117757142D01*
X131228571Y-117785714D01*
X131285714Y-117814285D01*
X131342857Y-117814285D01*
X131428571Y-117785714D01*
X131771428Y-117442857D01*
X131771428Y-117814285D01*
X131771428Y-118385714D02*
X131771428Y-118042857D01*
X131771428Y-118214285D02*
X131171428Y-118214285D01*
X131257142Y-118157142D01*
X131314285Y-118100000D01*
X131342857Y-118042857D01*
X131771428Y-109642857D02*
X131171428Y-109642857D01*
X131171428Y-109785714D01*
X131200000Y-109871428D01*
X131257142Y-109928571D01*
X131314285Y-109957142D01*
X131428571Y-109985714D01*
X131514285Y-109985714D01*
X131628571Y-109957142D01*
X131685714Y-109928571D01*
X131742857Y-109871428D01*
X131771428Y-109785714D01*
X131771428Y-109642857D01*
X131771428Y-110500000D02*
X131457142Y-110500000D01*
X131400000Y-110471428D01*
X131371428Y-110414285D01*
X131371428Y-110300000D01*
X131400000Y-110242857D01*
X131742857Y-110500000D02*
X131771428Y-110442857D01*
X131771428Y-110300000D01*
X131742857Y-110242857D01*
X131685714Y-110214285D01*
X131628571Y-110214285D01*
X131571428Y-110242857D01*
X131542857Y-110300000D01*
X131542857Y-110442857D01*
X131514285Y-110500000D01*
X131371428Y-110700000D02*
X131371428Y-110928571D01*
X131171428Y-110785714D02*
X131685714Y-110785714D01*
X131742857Y-110814285D01*
X131771428Y-110871428D01*
X131771428Y-110928571D01*
X131742857Y-111357142D02*
X131771428Y-111300000D01*
X131771428Y-111185714D01*
X131742857Y-111128571D01*
X131685714Y-111100000D01*
X131457142Y-111100000D01*
X131400000Y-111128571D01*
X131371428Y-111185714D01*
X131371428Y-111300000D01*
X131400000Y-111357142D01*
X131457142Y-111385714D01*
X131514285Y-111385714D01*
X131571428Y-111100000D01*
X129171428Y-114728571D02*
X129600000Y-114728571D01*
X129685714Y-114700000D01*
X129742857Y-114642857D01*
X129771428Y-114557142D01*
X129771428Y-114500000D01*
X129771428Y-115300000D02*
X129771428Y-115014285D01*
X129171428Y-115014285D01*
X129714285Y-115842857D02*
X129742857Y-115814285D01*
X129771428Y-115728571D01*
X129771428Y-115671428D01*
X129742857Y-115585714D01*
X129685714Y-115528571D01*
X129628571Y-115500000D01*
X129514285Y-115471428D01*
X129428571Y-115471428D01*
X129314285Y-115500000D01*
X129257142Y-115528571D01*
X129200000Y-115585714D01*
X129171428Y-115671428D01*
X129171428Y-115728571D01*
X129200000Y-115814285D01*
X129228571Y-115842857D01*
X129171428Y-116271428D02*
X129600000Y-116271428D01*
X129685714Y-116242857D01*
X129742857Y-116185714D01*
X129771428Y-116100000D01*
X129771428Y-116042857D01*
X129771428Y-116842857D02*
X129771428Y-116557142D01*
X129171428Y-116557142D01*
X129714285Y-117385714D02*
X129742857Y-117357142D01*
X129771428Y-117271428D01*
X129771428Y-117214285D01*
X129742857Y-117128571D01*
X129685714Y-117071428D01*
X129628571Y-117042857D01*
X129514285Y-117014285D01*
X129428571Y-117014285D01*
X129314285Y-117042857D01*
X129257142Y-117071428D01*
X129200000Y-117128571D01*
X129171428Y-117214285D01*
X129171428Y-117271428D01*
X129200000Y-117357142D01*
X129228571Y-117385714D01*
X129171428Y-117814285D02*
X129600000Y-117814285D01*
X129685714Y-117785714D01*
X129742857Y-117728571D01*
X129771428Y-117642857D01*
X129771428Y-117585714D01*
X129771428Y-118385714D02*
X129771428Y-118100000D01*
X129171428Y-118100000D01*
X129714285Y-118928571D02*
X129742857Y-118900000D01*
X129771428Y-118814285D01*
X129771428Y-118757142D01*
X129742857Y-118671428D01*
X129685714Y-118614285D01*
X129628571Y-118585714D01*
X129514285Y-118557142D01*
X129428571Y-118557142D01*
X129314285Y-118585714D01*
X129257142Y-118614285D01*
X129200000Y-118671428D01*
X129171428Y-118757142D01*
X129171428Y-118814285D01*
X129200000Y-118900000D01*
X129228571Y-118928571D01*
X129171428Y-119357142D02*
X129600000Y-119357142D01*
X129685714Y-119328571D01*
X129742857Y-119271428D01*
X129771428Y-119185714D01*
X129771428Y-119128571D01*
X129771428Y-119928571D02*
X129771428Y-119642857D01*
X129171428Y-119642857D01*
X129714285Y-120471428D02*
X129742857Y-120442857D01*
X129771428Y-120357142D01*
X129771428Y-120300000D01*
X129742857Y-120214285D01*
X129685714Y-120157142D01*
X129628571Y-120128571D01*
X129514285Y-120100000D01*
X129428571Y-120100000D01*
X129314285Y-120128571D01*
X129257142Y-120157142D01*
X129200000Y-120214285D01*
X129171428Y-120300000D01*
X129171428Y-120357142D01*
X129200000Y-120442857D01*
X129228571Y-120471428D01*
D10*
X139452380Y-113738095D02*
X140261904Y-113738095D01*
X140357142Y-113785714D01*
X140404761Y-113833333D01*
X140452380Y-113928571D01*
X140452380Y-114119047D01*
X140404761Y-114214285D01*
X140357142Y-114261904D01*
X140261904Y-114309523D01*
X139452380Y-114309523D01*
X140452380Y-115309523D02*
X140452380Y-114738095D01*
X140452380Y-115023809D02*
X139452380Y-115023809D01*
X139595238Y-114928571D01*
X139690476Y-114833333D01*
X139738095Y-114738095D01*
X155295238Y-72847619D02*
X155390476Y-72800000D01*
X155485714Y-72704761D01*
X155628571Y-72561904D01*
X155723809Y-72514285D01*
X155819047Y-72514285D01*
X155771428Y-72752380D02*
X155866666Y-72704761D01*
X155961904Y-72609523D01*
X156009523Y-72419047D01*
X156009523Y-72085714D01*
X155961904Y-71895238D01*
X155866666Y-71800000D01*
X155771428Y-71752380D01*
X155580952Y-71752380D01*
X155485714Y-71800000D01*
X155390476Y-71895238D01*
X155342857Y-72085714D01*
X155342857Y-72419047D01*
X155390476Y-72609523D01*
X155485714Y-72704761D01*
X155580952Y-72752380D01*
X155771428Y-72752380D01*
X154390476Y-72752380D02*
X154961904Y-72752380D01*
X154676190Y-72752380D02*
X154676190Y-71752380D01*
X154771428Y-71895238D01*
X154866666Y-71990476D01*
X154961904Y-72038095D01*
X128507142Y-79333333D02*
X128554761Y-79285714D01*
X128602380Y-79142857D01*
X128602380Y-79047619D01*
X128554761Y-78904761D01*
X128459523Y-78809523D01*
X128364285Y-78761904D01*
X128173809Y-78714285D01*
X128030952Y-78714285D01*
X127840476Y-78761904D01*
X127745238Y-78809523D01*
X127650000Y-78904761D01*
X127602380Y-79047619D01*
X127602380Y-79142857D01*
X127650000Y-79285714D01*
X127697619Y-79333333D01*
X127602380Y-80238095D02*
X127602380Y-79761904D01*
X128078571Y-79714285D01*
X128030952Y-79761904D01*
X127983333Y-79857142D01*
X127983333Y-80095238D01*
X128030952Y-80190476D01*
X128078571Y-80238095D01*
X128173809Y-80285714D01*
X128411904Y-80285714D01*
X128507142Y-80238095D01*
X128554761Y-80190476D01*
X128602380Y-80095238D01*
X128602380Y-79857142D01*
X128554761Y-79761904D01*
X128507142Y-79714285D01*
X149666666Y-97857142D02*
X149714285Y-97904761D01*
X149857142Y-97952380D01*
X149952380Y-97952380D01*
X150095238Y-97904761D01*
X150190476Y-97809523D01*
X150238095Y-97714285D01*
X150285714Y-97523809D01*
X150285714Y-97380952D01*
X150238095Y-97190476D01*
X150190476Y-97095238D01*
X150095238Y-97000000D01*
X149952380Y-96952380D01*
X149857142Y-96952380D01*
X149714285Y-97000000D01*
X149666666Y-97047619D01*
X149333333Y-96952380D02*
X148714285Y-96952380D01*
X149047619Y-97333333D01*
X148904761Y-97333333D01*
X148809523Y-97380952D01*
X148761904Y-97428571D01*
X148714285Y-97523809D01*
X148714285Y-97761904D01*
X148761904Y-97857142D01*
X148809523Y-97904761D01*
X148904761Y-97952380D01*
X149190476Y-97952380D01*
X149285714Y-97904761D01*
X149333333Y-97857142D01*
X155296666Y-95432380D02*
X155630000Y-94956190D01*
X155868095Y-95432380D02*
X155868095Y-94432380D01*
X155487142Y-94432380D01*
X155391904Y-94480000D01*
X155344285Y-94527619D01*
X155296666Y-94622857D01*
X155296666Y-94765714D01*
X155344285Y-94860952D01*
X155391904Y-94908571D01*
X155487142Y-94956190D01*
X155868095Y-94956190D01*
X154915714Y-94527619D02*
X154868095Y-94480000D01*
X154772857Y-94432380D01*
X154534761Y-94432380D01*
X154439523Y-94480000D01*
X154391904Y-94527619D01*
X154344285Y-94622857D01*
X154344285Y-94718095D01*
X154391904Y-94860952D01*
X154963333Y-95432380D01*
X154344285Y-95432380D01*
D14*
X141432243Y-71350976D02*
X141432243Y-72070643D01*
X141389910Y-72155310D01*
X141347576Y-72197643D01*
X141262910Y-72239976D01*
X141093576Y-72239976D01*
X141008910Y-72197643D01*
X140966576Y-72155310D01*
X140924243Y-72070643D01*
X140924243Y-71350976D01*
X140543243Y-71435643D02*
X140500910Y-71393310D01*
X140416243Y-71350976D01*
X140204576Y-71350976D01*
X140119910Y-71393310D01*
X140077576Y-71435643D01*
X140035243Y-71520310D01*
X140035243Y-71604976D01*
X140077576Y-71731976D01*
X140585576Y-72239976D01*
X140035243Y-72239976D01*
D10*
X149157142Y-106433333D02*
X149204761Y-106385714D01*
X149252380Y-106242857D01*
X149252380Y-106147619D01*
X149204761Y-106004761D01*
X149109523Y-105909523D01*
X149014285Y-105861904D01*
X148823809Y-105814285D01*
X148680952Y-105814285D01*
X148490476Y-105861904D01*
X148395238Y-105909523D01*
X148300000Y-106004761D01*
X148252380Y-106147619D01*
X148252380Y-106242857D01*
X148300000Y-106385714D01*
X148347619Y-106433333D01*
X149252380Y-107385714D02*
X149252380Y-106814285D01*
X149252380Y-107100000D02*
X148252380Y-107100000D01*
X148395238Y-107004761D01*
X148490476Y-106909523D01*
X148538095Y-106814285D01*
X128702380Y-84083333D02*
X128226190Y-83750000D01*
X128702380Y-83511904D02*
X127702380Y-83511904D01*
X127702380Y-83892857D01*
X127750000Y-83988095D01*
X127797619Y-84035714D01*
X127892857Y-84083333D01*
X128035714Y-84083333D01*
X128130952Y-84035714D01*
X128178571Y-83988095D01*
X128226190Y-83892857D01*
X128226190Y-83511904D01*
X128702380Y-85035714D02*
X128702380Y-84464285D01*
X128702380Y-84750000D02*
X127702380Y-84750000D01*
X127845238Y-84654761D01*
X127940476Y-84559523D01*
X127988095Y-84464285D01*
X128702380Y-88583333D02*
X128226190Y-88250000D01*
X128702380Y-88011904D02*
X127702380Y-88011904D01*
X127702380Y-88392857D01*
X127750000Y-88488095D01*
X127797619Y-88535714D01*
X127892857Y-88583333D01*
X128035714Y-88583333D01*
X128130952Y-88535714D01*
X128178571Y-88488095D01*
X128226190Y-88392857D01*
X128226190Y-88011904D01*
X127702380Y-88916666D02*
X127702380Y-89535714D01*
X128083333Y-89202380D01*
X128083333Y-89345238D01*
X128130952Y-89440476D01*
X128178571Y-89488095D01*
X128273809Y-89535714D01*
X128511904Y-89535714D01*
X128607142Y-89488095D01*
X128654761Y-89440476D01*
X128702380Y-89345238D01*
X128702380Y-89059523D01*
X128654761Y-88964285D01*
X128607142Y-88916666D01*
X155295238Y-81847619D02*
X155390476Y-81800000D01*
X155485714Y-81704761D01*
X155628571Y-81561904D01*
X155723809Y-81514285D01*
X155819047Y-81514285D01*
X155771428Y-81752380D02*
X155866666Y-81704761D01*
X155961904Y-81609523D01*
X156009523Y-81419047D01*
X156009523Y-81085714D01*
X155961904Y-80895238D01*
X155866666Y-80800000D01*
X155771428Y-80752380D01*
X155580952Y-80752380D01*
X155485714Y-80800000D01*
X155390476Y-80895238D01*
X155342857Y-81085714D01*
X155342857Y-81419047D01*
X155390476Y-81609523D01*
X155485714Y-81704761D01*
X155580952Y-81752380D01*
X155771428Y-81752380D01*
X154961904Y-80847619D02*
X154914285Y-80800000D01*
X154819047Y-80752380D01*
X154580952Y-80752380D01*
X154485714Y-80800000D01*
X154438095Y-80847619D01*
X154390476Y-80942857D01*
X154390476Y-81038095D01*
X154438095Y-81180952D01*
X155009523Y-81752380D01*
X154390476Y-81752380D01*
X141916666Y-105557142D02*
X141964285Y-105604761D01*
X142107142Y-105652380D01*
X142202380Y-105652380D01*
X142345238Y-105604761D01*
X142440476Y-105509523D01*
X142488095Y-105414285D01*
X142535714Y-105223809D01*
X142535714Y-105080952D01*
X142488095Y-104890476D01*
X142440476Y-104795238D01*
X142345238Y-104700000D01*
X142202380Y-104652380D01*
X142107142Y-104652380D01*
X141964285Y-104700000D01*
X141916666Y-104747619D01*
X141535714Y-104747619D02*
X141488095Y-104700000D01*
X141392857Y-104652380D01*
X141154761Y-104652380D01*
X141059523Y-104700000D01*
X141011904Y-104747619D01*
X140964285Y-104842857D01*
X140964285Y-104938095D01*
X141011904Y-105080952D01*
X141583333Y-105652380D01*
X140964285Y-105652380D01*
D15*
X141090000Y-110650000D02*
X141090000Y-116660000D01*
X141090000Y-116660000D02*
X142350000Y-116660000D01*
X147910000Y-112900000D02*
X147910000Y-116660000D01*
X147910000Y-116660000D02*
X146650000Y-116660000D01*
X153950000Y-73240000D02*
X153300000Y-73240000D01*
X153950000Y-76360000D02*
X152275000Y-76360000D01*
X153950000Y-73240000D02*
X154600000Y-73240000D01*
X153950000Y-76360000D02*
X154600000Y-76360000D01*
X130835000Y-81560000D02*
X128965000Y-81560000D01*
X128965000Y-81560000D02*
X128965000Y-77650000D01*
X130835000Y-77650000D02*
X130835000Y-81560000D01*
X155310000Y-96565000D02*
X155310000Y-98435000D01*
X151400000Y-96565000D02*
X155310000Y-96565000D01*
X155310000Y-98435000D02*
X151400000Y-98435000D01*
X152607064Y-95735000D02*
X152152936Y-95735000D01*
X152607064Y-94265000D02*
X152152936Y-94265000D01*
D16*
X132291630Y-93618310D02*
X132291630Y-72620130D01*
D17*
X138659410Y-75838310D02*
X138659410Y-73298310D01*
D16*
X150089410Y-73290690D02*
X150089410Y-93618310D01*
X145695210Y-78548490D02*
X145695210Y-71195190D01*
D17*
X143739410Y-73298310D02*
X138659410Y-73298310D01*
X146406410Y-76600310D02*
X144628410Y-76600310D01*
X137770410Y-75203310D02*
X135992410Y-75203310D01*
X143739410Y-75838310D02*
X143739410Y-73298310D01*
X146406410Y-79269850D02*
X146406410Y-76600310D01*
X137770410Y-72536310D02*
X135992410Y-72536310D01*
X137770410Y-79269850D02*
X137770410Y-76600310D01*
D16*
X132291630Y-72620130D02*
X149418850Y-72620130D01*
D17*
X146406410Y-79269850D02*
X144628410Y-79269850D01*
D16*
X150089410Y-93618310D02*
X132291630Y-93618310D01*
D17*
X137770410Y-79269850D02*
X135992410Y-79269850D01*
X143739410Y-90443310D02*
X138024410Y-90443310D01*
X146406410Y-75203310D02*
X146406410Y-72536310D01*
X138024410Y-92983310D02*
X138024410Y-90443310D01*
X143739410Y-75838310D02*
X138659410Y-75838310D01*
X135992410Y-79269850D02*
X135992410Y-76600310D01*
D16*
X136695990Y-71195190D02*
X136695990Y-78548490D01*
X145690130Y-71195190D02*
X136695990Y-71195190D01*
X149418850Y-72620130D02*
X150089410Y-73290690D01*
D17*
X144628410Y-79269850D02*
X144628410Y-76600310D01*
X146406410Y-75203310D02*
X144628410Y-75203310D01*
X146406410Y-72536310D02*
X144628410Y-72536310D01*
X144628410Y-75203310D02*
X144628410Y-72536310D01*
D16*
X136695990Y-78548490D02*
X145695210Y-78548490D01*
D17*
X143739410Y-92983310D02*
X138024410Y-92983310D01*
X137770410Y-76600310D02*
X135992410Y-76600310D01*
X137770410Y-75203310D02*
X137770410Y-72536310D01*
X135992410Y-75203310D02*
X135992410Y-72536310D01*
X143739410Y-92983310D02*
X143739410Y-90443310D01*
D13*
X151232410Y-75457310D02*
G75*
G03*
X151232410Y-75457310I-254000J0D01*
G01*
D15*
X147935000Y-109565000D02*
X146065000Y-109565000D01*
X146065000Y-109565000D02*
X146065000Y-105655000D01*
X147935000Y-105655000D02*
X147935000Y-109565000D01*
X130735000Y-84389564D02*
X130735000Y-83935436D01*
X129265000Y-84389564D02*
X129265000Y-83935436D01*
X130735000Y-88889564D02*
X130735000Y-88435436D01*
X129265000Y-88889564D02*
X129265000Y-88435436D01*
X153950000Y-77240000D02*
X154600000Y-77240000D01*
X153950000Y-80360000D02*
X154600000Y-80360000D01*
X153950000Y-80360000D02*
X152275000Y-80360000D01*
X153950000Y-77240000D02*
X153300000Y-77240000D01*
X145510000Y-106040000D02*
X145510000Y-109460000D01*
X138750000Y-106040000D02*
X145510000Y-106040000D01*
X145510000Y-109460000D02*
X138750000Y-109460000D01*
%LPC*%
D18*
X136250000Y-118290000D03*
X136250000Y-115750000D03*
X136250000Y-113210000D03*
D19*
X152750000Y-69250000D03*
D20*
X154535000Y-100285000D03*
D21*
X149455000Y-100285000D03*
X151995000Y-100285000D03*
D22*
X146915000Y-100285000D03*
X144375000Y-100285000D03*
X144375000Y-97745000D03*
D19*
X130500000Y-97250000D03*
D18*
X136250000Y-107520000D03*
X136250000Y-104980000D03*
D23*
X135500000Y-97225000D03*
D24*
X135500000Y-99765000D03*
D25*
X142200000Y-111600000D03*
X144500000Y-111600000D03*
X146800000Y-111600000D03*
D26*
X144500000Y-117900000D03*
D27*
X153012500Y-75750000D03*
X153012500Y-73850000D03*
X154887500Y-74800000D03*
D28*
X129900000Y-80600000D03*
X129900000Y-77900000D03*
D29*
X154350000Y-97500000D03*
X151650000Y-97500000D03*
D30*
X153292500Y-95000000D03*
X151467500Y-95000000D03*
D31*
X149256290Y-75500490D03*
X149256290Y-78040490D03*
X149256290Y-80580490D03*
X149256290Y-83120490D03*
X149256290Y-85660490D03*
X149256290Y-88200490D03*
X149256290Y-90740490D03*
X133091730Y-90740490D03*
X133091730Y-88200490D03*
X133091730Y-85660490D03*
X133091730Y-83120490D03*
X133091730Y-80580490D03*
X133091730Y-78040490D03*
X133091730Y-75500490D03*
D32*
X142389410Y-91818310D03*
X139839410Y-91818310D03*
D33*
X142390607Y-74814123D03*
X139850607Y-74814123D03*
X142390607Y-77354123D03*
X139850607Y-77354123D03*
D28*
X147000000Y-108605000D03*
X147000000Y-105905000D03*
D34*
X130000000Y-85075000D03*
X130000000Y-83250000D03*
X130000000Y-89575000D03*
X130000000Y-87750000D03*
D27*
X153012500Y-79750000D03*
X153012500Y-77850000D03*
X154887500Y-78800000D03*
D35*
X144212500Y-107750000D03*
X139287500Y-107750000D03*
M02*
