%FSLAX45Y45*%
G04 Gerber Fmt 4.5, Leading zero omitted, Abs format (unit mm)*
G04 Created by KiCad (PCBNEW (6.0.1)) date 2022-03-21 13:57:09*
%MOMM*%
%LPD*%
G01*
G04 APERTURE LIST*
%TA.AperFunction,Profile*%
%ADD10C,0.100000*%
%TD*%
%TA.AperFunction,Profile*%
%ADD11C,0.150000*%
%TD*%
%ADD12C,0.200000*%
G04 APERTURE END LIST*
D10*
X15700000Y-6700000D02*
X15700000Y-10150000D01*
D11*
X14130500Y-9935500D02*
G75*
G03*
X14130500Y-9935500I-110000J0D01*
G01*
D10*
X12725000Y-12050000D02*
G75*
G03*
X12875000Y-12200000I150000J0D01*
G01*
X14442500Y-7099657D02*
X13125000Y-7100000D01*
X15550000Y-10300000D02*
G75*
G03*
X15700000Y-10150000I0J150000D01*
G01*
X15000000Y-12050000D02*
X15000000Y-10450000D01*
X15150000Y-10300000D02*
X15550000Y-10300000D01*
D11*
X15470500Y-8345500D02*
G75*
G03*
X15470500Y-8345500I-110000J0D01*
G01*
D10*
X15700000Y-6700000D02*
G75*
G03*
X15500000Y-6500000I-200000J0D01*
G01*
X12875000Y-12200000D02*
X14850000Y-12200000D01*
X13125000Y-7100000D02*
G75*
G03*
X12725000Y-7500000I0J-400000D01*
G01*
X12725000Y-7500000D02*
X12725000Y-12050000D01*
X15150000Y-10300000D02*
G75*
G03*
X15000000Y-10450000I0J-150000D01*
G01*
X15050000Y-6499657D02*
G75*
G03*
X14849657Y-6699657I0J-200343D01*
G01*
X14442500Y-7099657D02*
G75*
G03*
X14849657Y-6699657I7095J400000D01*
G01*
X14850000Y-12200000D02*
G75*
G03*
X15000000Y-12050000I0J150000D01*
G01*
X15050000Y-6499657D02*
X15500000Y-6500000D01*
D12*
X12977619Y-12515476D02*
X12977619Y-12315476D01*
X13025238Y-12315476D01*
X13053809Y-12325000D01*
X13072857Y-12344048D01*
X13082381Y-12363095D01*
X13091905Y-12401190D01*
X13091905Y-12429762D01*
X13082381Y-12467857D01*
X13072857Y-12486905D01*
X13053809Y-12505952D01*
X13025238Y-12515476D01*
X12977619Y-12515476D01*
X13177619Y-12515476D02*
X13177619Y-12382143D01*
X13177619Y-12420238D02*
X13187143Y-12401190D01*
X13196667Y-12391667D01*
X13215714Y-12382143D01*
X13234762Y-12382143D01*
X13301428Y-12515476D02*
X13301428Y-12382143D01*
X13301428Y-12315476D02*
X13291905Y-12325000D01*
X13301428Y-12334524D01*
X13310952Y-12325000D01*
X13301428Y-12315476D01*
X13301428Y-12334524D01*
X13425238Y-12515476D02*
X13406190Y-12505952D01*
X13396667Y-12486905D01*
X13396667Y-12315476D01*
X13530000Y-12515476D02*
X13510952Y-12505952D01*
X13501428Y-12486905D01*
X13501428Y-12315476D01*
X13758571Y-12515476D02*
X13758571Y-12315476D01*
X13825238Y-12458333D01*
X13891905Y-12315476D01*
X13891905Y-12515476D01*
X14072857Y-12515476D02*
X14072857Y-12410714D01*
X14063333Y-12391667D01*
X14044286Y-12382143D01*
X14006190Y-12382143D01*
X13987143Y-12391667D01*
X14072857Y-12505952D02*
X14053809Y-12515476D01*
X14006190Y-12515476D01*
X13987143Y-12505952D01*
X13977619Y-12486905D01*
X13977619Y-12467857D01*
X13987143Y-12448809D01*
X14006190Y-12439286D01*
X14053809Y-12439286D01*
X14072857Y-12429762D01*
X14168095Y-12382143D02*
X14168095Y-12582143D01*
X14168095Y-12391667D02*
X14187143Y-12382143D01*
X14225238Y-12382143D01*
X14244286Y-12391667D01*
X14253809Y-12401190D01*
X14263333Y-12420238D01*
X14263333Y-12477381D01*
X14253809Y-12496428D01*
X14244286Y-12505952D01*
X14225238Y-12515476D01*
X14187143Y-12515476D01*
X14168095Y-12505952D01*
X14349048Y-12496428D02*
X14358571Y-12505952D01*
X14349048Y-12515476D01*
X14339524Y-12505952D01*
X14349048Y-12496428D01*
X14349048Y-12515476D01*
X14349048Y-12391667D02*
X14358571Y-12401190D01*
X14349048Y-12410714D01*
X14339524Y-12401190D01*
X14349048Y-12391667D01*
X14349048Y-12410714D01*
M02*
